<?xml version="1.0" encoding="UTF-8"?>
<svg width="24px" height="24px" viewBox="0 0 24 24" version="1.1" xmlns="http://www.w3.org/2000/svg" xmlns:xlink="http://www.w3.org/1999/xlink">
    <title>ic_alarm</title>
    <defs>
        <path d="M12,1.93548387 C17.5228475,1.93548387 22,6.2682121 22,11.6129032 C22,14.0238647 21.0889605,16.2289055 19.5818605,17.9232073 L20.9497475,19.2475038 C21.2331925,19.5218055 21.2406047,19.9739485 20.966303,20.2573936 C20.9608753,20.2630022 20.9553561,20.2685215 20.9497475,20.2739492 C20.6540837,20.5600754 20.1847511,20.5600754 19.8890873,20.2739492 L18.520959,18.9499281 C16.7701393,20.4085669 14.4914746,21.2903226 12,21.2903226 C9.5085254,21.2903226 7.22986071,20.4085669 5.47904098,18.9499281 L4.1109127,20.2739492 C3.8152489,20.5600754 3.34591634,20.5600754 3.05025253,20.2739492 C2.76680748,19.9996475 2.7593953,19.5475045 3.03369696,19.2640594 C3.03912465,19.2584508 3.04464392,19.2529315 3.05025253,19.2475038 L4.4181395,17.9232073 C2.9110395,16.2289055 2,14.0238647 2,11.6129032 C2,6.2682121 6.4771525,1.93548387 12,1.93548387 Z M12,3.38709677 C7.30557963,3.38709677 3.5,7.06991577 3.5,11.6129032 C3.5,16.1558907 7.30557963,19.8387097 12,19.8387097 C16.6944204,19.8387097 20.5,16.1558907 20.5,11.6129032 C20.5,7.06991577 16.6944204,3.38709677 12,3.38709677 Z M13.6353877,12.2169952 L16.9604076,15.4352395 C17.2438527,15.7095411 17.2512649,16.1616842 16.9769632,16.4451292 L16.9516436,16.4701661 C16.6608658,16.751564 16.1992893,16.751564 15.9085115,16.4701661 L12.5507476,13.2208808 C13.0494972,13.060981 13.448778,12.6898356 13.6353877,12.2169952 Z M12.75,11.6129032 C12.75,11.9803507 12.4678461,12.2840235 12.1017706,12.3320839 L12,12.3387097 L11.8982294,12.3318631 L12,12.3387097 C11.6457384,12.3387097 11.3488443,12.1010135 11.2703226,11.7814323 L11.2666968,11.7468238 C11.2557582,11.6958493 11.25,11.6429519 11.25,11.5887097 L11.25,6.7983871 C11.25,6.38417353 11.5857864,6.0483871 12,6.0483871 C12.4142136,6.0483871 12.75,6.38417353 12.75,6.7983871 L12.75,11.6129032 Z M5.26008995,2.15365955 C5.51533521,2.46936113 5.45779478,2.92553025 5.13156981,3.1725418 C4.4409476,3.69546822 3.81801912,4.29835387 3.27772128,4.96674273 C3.02250406,5.28246554 2.55113424,5.33818902 2.22488734,5.09120461 C1.89864044,4.8442202 1.84105951,4.38805586 2.09627673,4.07233305 C2.71153598,3.31121132 3.42080532,2.62476283 4.20724496,2.02928522 C4.53346993,1.78227368 5.00484469,1.83795796 5.26008995,2.15365955 Z M19.7929399,2.02932888 C20.5790964,2.6247118 21.2880809,3.31086454 21.9031087,4.07157282 C22.1583524,4.3872756 22.1008096,4.84344445 21.7745834,5.09045446 C21.4483572,5.33746448 20.9769827,5.28177798 20.7217391,4.9660752 C20.1816323,4.29803437 19.5589258,3.69538119 18.8684997,3.17249814 C18.5422997,2.92545579 18.4848053,2.46928123 18.7400824,2.15360376 C18.9953595,1.83792628 19.4667398,1.78228652 19.7929399,2.02932888 Z" id="path-1"></path>
    </defs>
    <g id="ic_alarm" stroke="none" stroke-width="1" fill="none" fill-rule="evenodd">
        <mask id="mask-2" fill="white">
            <use xlink:href="#path-1"></use>
        </mask>
        <use id="蒙版" fill="#182431" xlink:href="#path-1"></use>
    </g>
</svg>