<?xml version="1.0" encoding="UTF-8"?>
<svg width="24px" height="24px" viewBox="0 0 24 24" version="1.1" xmlns="http://www.w3.org/2000/svg" xmlns:xlink="http://www.w3.org/1999/xlink">
    <title>ic_vibrations</title>
    <g id="ic_vibrations" stroke="none" stroke-width="1" fill="none" fill-rule="evenodd">
        <path d="M14.4500051,2.75 C15.4824008,2.75 15.8659798,2.82683849 16.2458786,3.01823247 C16.5587023,3.17583388 16.8063544,3.40516574 16.9748166,3.69951351 C17.180583,4.08427159 17.25,4.4511598 17.25,5.34419809 L17.2500493,18.6472033 C17.238809,19.6275588 17.1653568,19.9649813 16.9779014,20.2951731 C16.8102375,20.5905031 16.563183,20.8208077 16.2507132,20.9792691 C15.829362,21.179473 15.4301249,21.25 14.4500051,21.25 L9.55762556,21.2500388 C8.48156761,21.2390902 8.11550119,21.1638316 7.75412142,20.9817675 C7.44129769,20.8241661 7.19364556,20.5948343 7.0251834,20.3004865 C6.81941698,19.9157284 6.75,19.5488402 6.75,18.6558019 L6.75,5.34419809 C6.75,4.40441474 6.82521879,4.05161919 7.02209865,3.70482693 C7.18976254,3.40949687 7.43681701,3.1791923 7.74928677,3.02073088 C8.17063802,2.82052702 8.56987511,2.75 9.54999489,2.75 Z" id="路径" stroke="#182431" stroke-width="1.5" fill-rule="nonzero"></path>
        <polyline id="路径-3" stroke="#182431" stroke-width="1.5" stroke-linecap="round" stroke-linejoin="round" points="2 6 4 8 2 10 4 12 2 14 4 16 2 18"></polyline>
        <polyline id="路径-3" stroke="#182431" stroke-width="1.5" stroke-linecap="round" stroke-linejoin="round" transform="translate(21.000000, 12.000000) scale(-1, 1) translate(-21.000000, -12.000000) " points="20 6 22 8 20 10 22 12 20 14 22 16 20 18"></polyline>
    </g>
</svg>