<svg width="32" height="32" viewBox="0 0 32 32" fill="none" xmlns="http://www.w3.org/2000/svg">
<g id="Frame">
<g id="_Public/ic_public_voice_filled">
<path id="_&#229;&#189;&#162;&#231;&#138;&#182;&#231;&#187;&#147;&#229;&#144;&#136;" d="M25.0003 13.6667C25.7367 13.6667 26.3337 14.2637 26.3337 15.0001C26.3337 20.2551 22.411 24.5939 17.3341 25.2481L17.3337 28.0001C17.3337 28.7365 16.7367 29.3334 16.0003 29.3334C15.2863 29.3334 14.7033 28.7721 14.6686 28.0666L14.667 28.0001L14.6679 25.2483C9.59032 24.5946 5.66699 20.2555 5.66699 15.0001C5.66699 14.2637 6.26395 13.6667 7.00033 13.6667C7.73671 13.6667 8.33366 14.2637 8.33366 15.0001C8.33366 19.2343 11.7661 22.6667 16.0003 22.6667C20.1922 22.6667 23.5983 19.3026 23.666 15.1269L23.667 15.0001C23.667 14.2637 24.2639 13.6667 25.0003 13.6667ZM16.0003 2.66675C18.9458 2.66675 21.3337 5.05456 21.3337 8.00008V15.0001C21.3337 17.9456 18.9458 20.3334 16.0003 20.3334C13.0548 20.3334 10.667 17.9456 10.667 15.0001V8.00008C10.667 5.05456 13.0548 2.66675 16.0003 2.66675Z" fill="#182431"/>
</g>
</g>
</svg>
