<svg width="32" height="32" viewBox="0 0 32 32" fill="none" xmlns="http://www.w3.org/2000/svg">
<g id="Frame" clip-path="url(#clip0_82_726729)">
<g id="_Public/ic_public_sound_filled">
<path id="_&#229;&#144;&#136;&#229;&#185;&#182;&#229;&#189;&#162;&#231;&#138;&#182;" d="M26.4089 4.92812C29.3206 7.84581 30.9867 11.7908 30.9867 15.9962C30.9867 20.1908 29.3291 24.1266 26.4305 27.0425C25.9114 27.5648 25.0672 27.5673 24.5449 27.0481C24.0227 26.529 24.0202 25.6848 24.5393 25.1625C26.9461 22.7413 28.3201 19.4791 28.3201 15.9962C28.3201 12.5044 26.9391 9.2345 24.5213 6.81179C24.0012 6.29056 24.002 5.44634 24.5233 4.92617C25.0445 4.40601 25.8887 4.40688 26.4089 4.92812ZM10.7952 7.41109C11.6769 6.74572 12.9311 6.92108 13.5964 7.80276C13.8583 8.1498 14 8.57274 14 9.00751V22.9926C14 24.0972 13.1046 24.9926 12 24.9926C11.5652 24.9926 11.1423 24.8509 10.7952 24.589L5.596 20.6654L2.33333 20.6667C1.1091 20.6667 0.105077 19.7239 0.00773493 18.5248L0 18.3334V13.6667C0 12.3781 1.04467 11.3334 2.33317 11.3334L5.596 11.3321L10.7952 7.41109ZM22.2229 8.29842C24.2468 10.3265 25.4053 13.0697 25.4053 15.9929C25.4053 18.9086 24.2527 21.6454 22.2379 23.6722C21.7187 24.1945 20.8745 24.197 20.3523 23.6778C19.83 23.1587 19.8275 22.3145 20.3467 21.7922C21.8697 20.2601 22.7387 18.1969 22.7387 15.9929C22.7387 13.7832 21.8653 11.7152 20.3353 10.1821C19.8151 9.66086 19.816 8.81664 20.3372 8.29648C20.8585 7.77632 21.7027 7.77719 22.2229 8.29842ZM18.4265 11.9159C19.4872 13.0038 20.0928 14.462 20.0928 16.0122C20.0928 17.5818 19.472 19.0565 18.3878 20.1479C17.8688 20.6703 17.0246 20.6731 16.5022 20.1541C15.9798 19.6351 15.977 18.7909 16.4959 18.2685C17.0888 17.6718 17.4261 16.8704 17.4261 16.0122C17.4261 15.1646 17.0971 14.3723 16.5171 13.7775C16.0031 13.2502 16.0138 12.4061 16.541 11.892C17.0683 11.378 17.9124 11.3887 18.4265 11.9159Z" fill="white"/>
</g>
</g>
<defs>
<clipPath id="clip0_82_726729">
<rect width="32" height="32" fill="white"/>
</clipPath>
</defs>
</svg>
