<svg width="32" height="32" viewBox="0 0 32 32" fill="none" xmlns="http://www.w3.org/2000/svg">
<g id="Frame">
<g id="_ic_contacts_refuse_filled">
<path id="_&#229;&#189;&#162;&#231;&#138;&#182;&#231;&#187;&#147;&#229;&#144;&#136;" d="M3.23035 13.6498C9.13844 9.72278 22.5576 9.86345 28.6745 13.6742C30.1049 14.5702 30.9694 16.1419 30.9624 17.8333L30.9602 18.7238C30.9593 19.2095 30.8125 19.6844 30.5387 20.0868C30.0281 20.8395 29.1322 21.2369 28.2309 21.1395L25.0424 20.7988L24.7672 20.7782C23.64 20.7113 22.7625 19.7805 22.7618 18.6509L22.8142 16.8575C22.8151 16.1251 22.3118 15.4909 21.5989 15.3262C18.9011 14.6968 13.3189 14.6978 10.4061 15.3963C9.69705 15.5673 9.1959 16.2022 9.19493 16.9308L9.17114 18.5909C9.16509 19.6966 8.31865 20.6202 7.21719 20.7229C7.03672 20.7392 6.85625 20.7559 6.67681 20.7812L3.4744 21.2311C2.12835 21.2304 1.04072 20.1428 1.04004 18.7968L1.04255 17.7416C1.04646 16.1019 1.86154 14.5596 3.23035 13.6498Z" fill="white"/>
</g>
</g>
</svg>
