<svg width="24" height="24" viewBox="0 0 24 24" fill="none" xmlns="http://www.w3.org/2000/svg">
<g id="ic_public_image">
<g id="_Public/ic_public_picture">
<path id="_&#232;&#146;&#153;&#231;&#137;&#136;" d="M6.91631 22C5.48226 22 4.78434 21.8652 4.05893 21.4773C3.3986 21.1241 2.87588 20.6014 2.52273 19.9411C2.46359 19.8305 2.41241 19.7256 2.3662 19.6187L2.16986 19.164L2.20307 19.1294C2.06942 18.6279 2 17.9625 2 16.8722V7.12777C2 5.38267 2.17784 4.72619 2.51223 4.08792L2.53427 4.04631C2.86628 3.4255 3.3461 2.93192 3.95414 2.58517L4.04631 2.53427C4.69816 2.18565 5.34473 2 7.12777 2H16.8722C18.6173 2 19.2738 2.17784 19.9121 2.51223L19.9537 2.53427C20.5745 2.86628 21.0681 3.3461 21.4148 3.95414L21.4657 4.04631C21.8143 4.69816 22 5.34473 22 7.12777V13.642L20.5 12.141V7.12777C20.5 5.72858 20.4071 5.2475 20.143 4.75371C19.9342 4.36326 19.6367 4.0658 19.2463 3.85699C18.7772 3.60611 18.3196 3.50972 17.0753 3.50071L7.02454 3.50018L6.82306 3.50166C5.65508 3.51518 5.20982 3.61306 4.75371 3.85699C4.36326 4.0658 4.0658 4.36326 3.85699 4.75371C3.5929 5.2475 3.5 5.72858 3.5 7.12777L3.50018 16.9755L3.50166 17.1769C3.50433 17.4081 3.51031 17.6109 3.52007 17.7911L6.23118 15.0802C6.84253 14.4786 7.23245 14.2223 7.74786 14.0661C8.24343 13.9159 8.75657 13.9159 9.26249 14.0693L9.34617 14.0961C9.81612 14.2542 10.1985 14.5184 10.7791 15.0904L10.8932 15.2044C11.1864 15.4972 11.6616 15.4972 11.9545 15.2045L14.783 12.3768C15.3943 11.7752 15.7842 11.5189 16.2996 11.3627C16.7952 11.2124 17.3083 11.2124 17.8039 11.3627C18.3226 11.5199 18.7126 11.7778 19.331 12.3871L22 15.0558V17.0837C22 18.5177 21.8652 19.2157 21.4773 19.9411C21.1241 20.6014 20.6014 21.1241 19.9411 21.4773C19.2571 21.8431 18.5976 21.9838 17.3225 21.9987L17.0837 22H6.91631ZM17.3688 12.7982C17.1569 12.7339 16.9466 12.7339 16.7347 12.7982C16.4668 12.8794 16.2639 13.0166 15.7692 13.5113L13.0149 16.2655C12.1361 17.1433 10.7122 17.1435 9.83302 16.2656L9.72257 16.1551C9.29437 15.7333 9.09118 15.5929 8.87915 15.5215L8.81704 15.5016C8.60517 15.4374 8.39483 15.4374 8.18296 15.5016C7.91501 15.5828 7.71208 15.72 7.21739 16.2147L3.98095 19.4519C4.00402 19.486 4.02792 19.5192 4.05263 19.5516C4.05173 19.5536 4.05224 19.5543 4.05275 19.555C4.08544 19.5946 4.1197 19.6361 4.15541 19.6761C4.16577 19.6899 4.17732 19.7025 4.189 19.7149L4.15541 19.6761C4.19508 19.7206 4.23654 19.7633 4.27982 19.8042L4.189 19.7149C4.22623 19.7545 4.26491 19.7927 4.30504 19.8295L4.27982 19.8042C4.41896 19.9356 4.57678 20.0484 4.75371 20.143C5.22281 20.3939 5.68044 20.4903 6.92466 20.4993L7.12777 20.5H16.8722C18.2714 20.5 18.7525 20.4071 19.2463 20.143C19.6367 19.9342 19.9342 19.6367 20.143 19.2463C20.3939 18.7772 20.4903 18.3196 20.4993 17.0753L20.5 16.8722V16.384L20.4998 15.677L18.2743 13.4517C17.8764 13.0597 17.6795 12.9133 17.4633 12.8304L17.4008 12.8082L17.3688 12.7982ZM8.25 7.25C9.2165 7.25 10 8.0335 10 9C10 9.9665 9.2165 10.75 8.25 10.75C7.2835 10.75 6.5 9.9665 6.5 9C6.5 8.0335 7.2835 7.25 8.25 7.25Z" fill="white"/>
</g>
</g>
</svg>
