<svg width="24" height="24" viewBox="0 0 24 24" fill="none" xmlns="http://www.w3.org/2000/svg">
<g id="ic_public_rotateto90">
<path id="Vector 1" d="M9.5 4H17C19.2091 4 21 5.79086 21 8V16L23 12" stroke="white" stroke-width="1.6" stroke-linecap="round" stroke-linejoin="round"/>
<path id="Rectangle 19" d="M4 7.8H16C16.6627 7.8 17.2 8.33726 17.2 9V19C17.2 19.6627 16.6627 20.2 16 20.2H4C3.33726 20.2 2.8 19.6627 2.8 19V9C2.8 8.33726 3.33726 7.8 4 7.8Z" stroke="white" stroke-width="1.6"/>
<path id="90&#194;&#176;" d="M6.8202 11.285C7.14686 11.285 7.43853 11.3573 7.6952 11.502C7.95653 11.642 8.15953 11.8403 8.3042 12.097C8.45353 12.3537 8.5282 12.6477 8.5282 12.979C8.5282 13.231 8.48153 13.469 8.3882 13.693C8.29486 13.9123 8.1362 14.2017 7.9122 14.561L6.7292 16.493H5.8962L6.9322 14.827C7.02086 14.687 7.0932 14.582 7.1492 14.512C7.02786 14.554 6.87853 14.575 6.7012 14.575C6.3932 14.575 6.11786 14.505 5.8752 14.365C5.63253 14.2203 5.44353 14.0267 5.3082 13.784C5.17753 13.5367 5.1122 13.259 5.1122 12.951C5.1122 12.6337 5.18686 12.349 5.3362 12.097C5.48553 11.8403 5.69086 11.642 5.9522 11.502C6.21353 11.3573 6.50286 11.285 6.8202 11.285ZM6.8272 13.91C7.10253 13.91 7.32186 13.819 7.4852 13.637C7.6532 13.455 7.7372 13.2193 7.7372 12.93C7.7372 12.6407 7.6532 12.4073 7.4852 12.23C7.32186 12.0527 7.10253 11.964 6.8272 11.964C6.55186 11.964 6.3302 12.055 6.1622 12.237C5.99886 12.4143 5.9172 12.6453 5.9172 12.93C5.9172 13.224 5.99886 13.462 6.1622 13.644C6.3302 13.8213 6.55186 13.91 6.8272 13.91ZM12.6307 13.938C12.6307 14.8013 12.4814 15.457 12.1827 15.905C11.8887 16.353 11.4664 16.577 10.9157 16.577C10.3697 16.577 9.94741 16.353 9.64874 15.905C9.35474 15.457 9.20774 14.8013 9.20774 13.938C9.20774 13.07 9.35474 12.412 9.64874 11.964C9.94741 11.5113 10.3697 11.285 10.9157 11.285C11.4664 11.285 11.8887 11.509 12.1827 11.957C12.4814 12.405 12.6307 13.0653 12.6307 13.938ZM10.0057 13.938C10.0057 14.5913 10.0804 15.0813 10.2297 15.408C10.3791 15.73 10.6077 15.891 10.9157 15.891C11.2284 15.891 11.4571 15.73 11.6017 15.408C11.7511 15.086 11.8257 14.596 11.8257 13.938C11.8257 13.2753 11.7511 12.783 11.6017 12.461C11.4571 12.1343 11.2284 11.971 10.9157 11.971C10.6077 11.971 10.3791 12.1343 10.2297 12.461C10.0804 12.783 10.0057 13.2753 10.0057 13.938ZM13.0023 11.656C13.0023 11.46 13.049 11.2803 13.1423 11.117C13.2356 10.9537 13.3616 10.8253 13.5203 10.732C13.6836 10.634 13.8633 10.585 14.0593 10.585C14.26 10.585 14.4396 10.6317 14.5983 10.725C14.7616 10.8183 14.8876 10.9467 14.9763 11.11C15.0696 11.2733 15.1163 11.4553 15.1163 11.656C15.1163 11.852 15.0696 12.0317 14.9763 12.195C14.8876 12.3537 14.7616 12.4797 14.5983 12.573C14.4396 12.6663 14.26 12.713 14.0593 12.713C13.8633 12.713 13.6836 12.6663 13.5203 12.573C13.3616 12.4797 13.2356 12.3537 13.1423 12.195C13.049 12.0317 13.0023 11.852 13.0023 11.656ZM13.5413 11.656C13.5413 11.8193 13.588 11.9523 13.6813 12.055C13.7793 12.1577 13.9053 12.209 14.0593 12.209C14.218 12.209 14.3463 12.1577 14.4443 12.055C14.5423 11.9523 14.5913 11.8193 14.5913 11.656C14.5913 11.488 14.5423 11.3527 14.4443 11.25C14.3463 11.1427 14.218 11.089 14.0593 11.089C13.9053 11.089 13.7793 11.1427 13.6813 11.25C13.588 11.3527 13.5413 11.488 13.5413 11.656Z" fill="white"/>
</g>
</svg>
