<svg width="32" height="32" viewBox="0 0 32 32" fill="none" xmlns="http://www.w3.org/2000/svg">
<g id="img_rocket">
<g id="_Public/ic_public_fast_filled">
<path id="_Fill-1" d="M3.39053 18.7995C2.90855 18.3175 2.86996 17.5534 3.29003 17.0264L3.33679 16.9709L5.4772 14.5629C5.96125 14.0183 6.64593 13.6966 7.37116 13.6697L7.47029 13.6679H8.1584L8.50339 13.2429C12.2803 8.62269 14.8271 5.56814 17.8222 4.47547C19.5148 3.85799 22.426 3.36875 26.5558 3.00775C27.6561 2.91156 28.6262 3.7256 28.7224 4.82599C28.7324 4.94071 28.7325 5.05608 28.7227 5.17082C28.3683 9.3091 27.8775 12.22 27.2503 13.9036C26.1408 16.8818 22.9291 19.639 18.0579 23.5674V24.2555C18.0579 25.0172 17.7322 25.7425 17.1629 26.2486L14.7549 28.389C14.2273 28.858 13.4255 28.8344 12.9263 28.3352L3.39053 18.7995ZM18.4095 13.4567C17.3684 12.4154 17.3684 10.7269 18.4095 9.68523C19.451 8.64397 21.1397 8.64397 22.1812 9.68523C23.2223 10.7269 23.2223 12.4154 22.1812 13.4567C21.1397 14.4979 19.451 14.4979 18.4095 13.4567ZM5.55564 23.0093L8.85797 26.311C8.98797 26.441 8.99231 26.6483 8.86697 26.7733L7.85864 27.782C7.20197 28.4383 6.28197 28.767 5.33631 28.683L3.64364 28.5326C3.48064 28.518 3.34831 28.3856 3.33397 28.223L3.18364 26.5306C3.09964 25.585 3.42831 24.665 4.08464 24.0086L5.09331 23.0003C5.21864 22.875 5.42564 22.8793 5.55564 23.0093Z" fill="#EDEDED"/>
<path id="Ellipse 5" d="M23.25 11.25C23.25 12.7688 22.0188 14 20.5 14C18.9812 14 17.75 12.7688 17.75 11.25C17.75 9.73122 18.9812 8.5 20.5 8.5C22.0188 8.5 23.25 9.73122 23.25 11.25Z" fill="#F7B500"/>
<path id="_Fill-1_2" d="M8.85717 26.3121L5.55484 23.0105C5.42484 22.8805 5.21784 22.8761 5.0925 23.0015L4.08384 24.0098C3.4275 24.6661 3.09884 25.5861 3.18284 26.5318L3.33317 28.2241C3.3475 28.3868 3.47984 28.5191 3.64284 28.5338L5.3355 28.6841C6.28117 28.7681 7.20117 28.4395 7.85784 27.7831L8.86617 26.7745C8.9915 26.6495 8.98717 26.4421 8.85717 26.3121Z" fill="#F24040"/>
</g>
</g>
</svg>
