<svg width="32" height="32" viewBox="0 0 32 32" fill="none" xmlns="http://www.w3.org/2000/svg">
<g id="img_flag">
<path id="Vector" d="M31.1875 5.625C31.1875 4.83162 30.5434 4.1875 29.75 4.1875H2.25C1.45662 4.1875 0.8125 4.83162 0.8125 5.625C0.8125 6.41838 1.45662 7.0625 2.25 7.0625H29.75C30.5434 7.0625 31.1875 6.41838 31.1875 5.625Z" fill="#FF7A57"/>
<path id="Vector_2" d="M27.3125 4.42312C27.3125 4.02911 27.156 3.65124 26.8774 3.37263C26.5988 3.09402 26.2209 2.9375 25.8269 2.9375H6.17312C5.77911 2.9375 5.40124 3.09402 5.12263 3.37263C4.84402 3.65124 4.6875 4.02911 4.6875 4.42312V22.8599C4.68749 23.2903 4.81458 23.7111 5.05283 24.0696C5.29109 24.4281 5.62989 24.7082 6.02675 24.8749L14.8256 28.5694C15.1975 28.7255 15.5967 28.8059 16 28.8059C16.4033 28.8059 16.8025 28.7255 17.1744 28.5694L25.9732 24.8749C26.3701 24.7082 26.7089 24.4281 26.9472 24.0696C27.1854 23.7111 27.3125 23.2903 27.3125 22.8599V4.42312Z" fill="#F9234E"/>
<path id="Vector_3" d="M4.6875 21.2344C4.68749 21.6648 4.81458 22.0856 5.05283 22.4441C5.29109 22.8026 5.62989 23.0827 6.02675 23.2494L14.8256 26.9439C15.1975 27.1 15.5967 27.1804 16 27.1804C16.4033 27.1804 16.8025 27.1 17.1744 26.9439L25.9732 23.2494C26.3701 23.0827 26.7089 22.8026 26.9472 22.4441C27.1854 22.0856 27.3125 21.6648 27.3125 21.2344V22.8594C27.3125 23.2898 27.1854 23.7106 26.9472 24.0691C26.7089 24.4276 26.3701 24.7077 25.9732 24.8744L17.1744 28.5689C16.8025 28.725 16.4033 28.8054 16 28.8054C15.5967 28.8054 15.1975 28.725 14.8256 28.5689L6.02675 24.8744C5.62989 24.7077 5.29109 24.4276 5.05283 24.0691C4.81458 23.7106 4.68749 23.2898 4.6875 22.8594V21.2344Z" fill="#FFBD57"/>
<path id="Vector_4" d="M16.6608 7.55803C16.616 7.60284 16.5893 7.66261 16.5857 7.7259C16.5822 7.78918 16.6022 7.85154 16.6418 7.90103L18.7256 10.5058L21.7443 8.7169C21.7734 8.69968 21.8069 8.69148 21.8406 8.69334C21.8744 8.6952 21.9068 8.70703 21.9338 8.72734C21.9608 8.74765 21.9812 8.77553 21.9923 8.80743C22.0035 8.83933 22.0049 8.87382 21.9964 8.90653L20.5464 14.4835C20.5249 14.5664 20.5253 14.6535 20.5478 14.7361C20.5703 14.8188 20.614 14.8941 20.6746 14.9547L20.7506 15.0308C20.8147 15.0948 20.8506 15.1817 20.8506 15.2723V15.7893C20.8506 15.8341 20.8418 15.8786 20.8247 15.92C20.8076 15.9615 20.7824 15.9992 20.7507 16.0309C20.719 16.0626 20.6813 16.0878 20.6398 16.1049C20.5984 16.1221 20.5539 16.1308 20.5091 16.1308H11.9421C11.8515 16.1308 11.7646 16.0948 11.7006 16.0308C11.6365 15.9667 11.6006 15.8798 11.6006 15.7893V15.2723C11.6006 15.1817 11.6366 15.0948 11.7007 15.0308L11.7767 14.9547C11.8372 14.8941 11.8809 14.8188 11.9034 14.7361C11.9259 14.6535 11.9264 14.5664 11.9048 14.4835L10.4548 8.90653C10.4462 8.87381 10.4476 8.83928 10.4587 8.80733C10.4698 8.77539 10.4901 8.74747 10.5172 8.72713C10.5442 8.70679 10.5766 8.69496 10.6104 8.69314C10.6442 8.69132 10.6777 8.69959 10.7068 8.7169L13.7256 10.5058L15.8094 7.90103C15.849 7.85154 15.869 7.78918 15.8655 7.7259C15.862 7.66261 15.8353 7.60284 15.7904 7.55803L15.1702 6.9379C15.122 6.88955 15.095 6.82408 15.095 6.75584C15.095 6.6876 15.122 6.62213 15.1702 6.57378L16.0436 5.7004C16.0918 5.65212 16.1573 5.625 16.2256 5.625C16.2939 5.625 16.3594 5.65212 16.4077 5.7004L17.2809 6.57378C17.3049 6.59765 17.3239 6.62603 17.3369 6.65727C17.3499 6.68851 17.3565 6.72201 17.3565 6.75584C17.3565 6.78967 17.3499 6.82317 17.3369 6.85441C17.3239 6.88565 17.3049 6.91403 17.2809 6.9379L16.6608 7.55803Z" fill="#FFC04B"/>
<path id="Vector_5" d="M19.3959 20.1861C19.9504 20.2912 21.1486 20.9566 21.1459 21.3111C21.143 21.6861 20.4138 21.8111 20.0209 21.8111C19.128 21.8111 18.2056 21.3614 18.2709 20.8111C18.3361 20.2609 19.1734 20.144 19.3959 20.1861ZM22.0315 19.7161C22.4479 19.7439 23.3868 20.1256 23.4164 20.386C23.4476 20.6615 22.9234 20.8182 22.635 20.8532C21.9796 20.9327 21.2625 20.6849 21.2614 20.2751C21.2603 19.8654 21.8644 19.705 22.0315 19.7161ZM24.0001 18.1936C24.3913 17.9769 25.4558 17.7731 25.6313 17.9886C25.817 18.2166 25.4341 18.6607 25.1943 18.8594C24.649 19.3106 23.8609 19.5052 23.6256 19.1399C23.3904 18.7745 23.8431 18.2806 24.0001 18.1936ZM24.2913 16.0805C24.4955 15.6826 25.2664 14.9209 25.5321 15.0021C25.8134 15.0881 25.7426 15.6702 25.6539 15.9687C25.4521 16.6471 24.9058 17.2475 24.5069 17.075C24.108 16.9025 24.2093 16.2401 24.2913 16.0805ZM22.2318 17.913C22.1799 17.4687 22.3963 16.4067 22.6623 16.3264C22.9438 16.2412 23.209 16.7642 23.3014 17.0616C23.5115 17.7374 23.3919 18.5404 22.9645 18.619C22.5371 18.6977 22.2525 18.0912 22.2318 17.913ZM20.3453 18.9885C20.508 18.572 21.1974 17.7359 21.4701 17.7897C21.7586 17.8466 21.7474 18.4329 21.6894 18.7389C21.5576 19.4342 21.0751 20.0871 20.6608 19.956C20.2465 19.8249 20.2799 19.1557 20.3453 18.9885ZM12.6041 20.1861C12.0496 20.2912 10.8514 20.9566 10.8541 21.3111C10.857 21.6861 11.5863 21.8111 11.9791 21.8111C12.872 21.8111 13.7944 21.3614 13.7291 20.8111C13.6639 20.2609 12.8266 20.144 12.6041 20.1861ZM9.9685 19.7161C9.55213 19.7439 8.61325 20.1256 8.58363 20.386C8.55238 20.6615 9.07663 20.8182 9.365 20.8532C10.0204 20.9327 10.7375 20.6849 10.7386 20.2751C10.7398 19.8654 10.1356 19.705 9.9685 19.7161ZM7.99988 18.1936C7.60875 17.9769 6.54425 17.7731 6.36875 17.9886C6.183 18.2166 6.56588 18.6607 6.80575 18.8594C7.351 19.3106 8.13913 19.5052 8.37438 19.1399C8.60963 18.7745 8.15688 18.2806 7.99988 18.1936ZM7.70875 16.0805C7.5045 15.6826 6.73363 14.9209 6.46788 15.0021C6.18663 15.0881 6.25738 15.6702 6.34613 15.9687C6.54788 16.6471 7.09425 17.2475 7.49313 17.075C7.892 16.9025 7.79075 16.2401 7.70875 16.0805ZM9.76825 17.913C9.82013 17.4687 9.60375 16.4067 9.33775 16.3264C9.05625 16.2412 8.791 16.7642 8.69863 17.0616C8.4885 17.7374 8.60813 18.5404 9.0355 18.619C9.46288 18.6977 9.7475 18.0912 9.76825 17.913ZM11.6548 18.9885C11.492 18.572 10.8026 17.7359 10.5299 17.7897C10.2414 17.8466 10.2526 18.4329 10.3106 18.7389C10.4424 19.4342 10.9249 20.0871 11.3393 19.956C11.7535 19.8249 11.7201 19.1557 11.6548 18.9885Z" fill="#FFBC5A"/>
<path id="Vector_6" d="M18.0625 22.3876C18.0625 22.2744 18.025 22.1645 17.9559 22.0748C17.8868 21.9852 17.7899 21.9209 17.6805 21.8921C17.1644 21.7647 16.7569 21.3656 16.61 20.8565C16.5754 20.7381 16.5033 20.6342 16.4046 20.5603C16.3059 20.4863 16.1859 20.4464 16.0626 20.4464C16.0459 20.4375 16.0292 20.4375 16.0126 20.4375C15.8994 20.4375 15.7895 20.475 15.6998 20.5441C15.6102 20.6132 15.5459 20.7101 15.5171 20.8195C15.3898 21.3356 14.9906 21.7431 14.4815 21.89C14.3631 21.9246 14.2592 21.9967 14.1853 22.0954C14.1113 22.1941 14.0714 22.3141 14.0714 22.4374C14.0625 22.4541 14.0625 22.4708 14.0625 22.4874C14.0625 22.6006 14.1 22.7105 14.1691 22.8002C14.2382 22.8898 14.3351 22.9541 14.4445 22.9829C14.9606 23.1103 15.3681 23.5094 15.515 24.0185C15.5496 24.1369 15.6217 24.2408 15.7204 24.3147C15.8191 24.3887 15.9391 24.4286 16.0624 24.4286C16.0791 24.4375 16.0958 24.4375 16.1124 24.4375C16.2256 24.4375 16.3355 24.4 16.4252 24.3309C16.5148 24.2618 16.5791 24.1649 16.6079 24.0555C16.7353 23.5394 17.1344 23.1319 17.6435 22.985C17.7619 22.9504 17.8658 22.8783 17.9397 22.7796C18.0137 22.6809 18.0536 22.5609 18.0536 22.4376C18.0625 22.4209 18.0625 22.4042 18.0625 22.3876Z" fill="#FFBC5A"/>
</g>
</svg>
