<svg width="24" height="24" viewBox="0 0 24 24" fill="none" xmlns="http://www.w3.org/2000/svg">
<g id="ic_brightness_small">
<g id="brightness">
<path id="&#229;&#144;&#136;&#229;&#185;&#182;&#229;&#189;&#162;&#231;&#138;&#182;" fill-rule="evenodd" clip-rule="evenodd" d="M11.25 1.75C11.25 1.33579 11.5858 1 12 1C12.4142 1 12.75 1.33579 12.75 1.75V3.75C12.75 4.16421 12.4142 4.5 12 4.5C11.5858 4.5 11.25 4.16421 11.25 3.75V1.75ZM5.5 12C5.5 15.5899 8.41015 18.5 12 18.5C15.5899 18.5 18.5 15.5899 18.5 12C18.5 8.41015 15.5899 5.5 12 5.5C8.41015 5.5 5.5 8.41015 5.5 12ZM17 12C17 14.7614 14.7614 17 12 17C9.23858 17 7 14.7614 7 12C7 9.23858 9.23858 7 12 7C14.7614 7 17 9.23858 17 12ZM1.75 12.75C1.33579 12.75 1 12.4142 1 12C1 11.5858 1.33579 11.25 1.75 11.25H3.75C4.16421 11.25 4.5 11.5858 4.5 12C4.5 12.4142 4.16421 12.75 3.75 12.75H1.75ZM19.5 12C19.5 12.4142 19.8358 12.75 20.25 12.75H22.25C22.6642 12.75 23 12.4142 23 12C23 11.5858 22.6642 11.25 22.25 11.25H20.25C19.8358 11.25 19.5 11.5858 19.5 12ZM12 19.75C11.5858 19.75 11.25 20.0858 11.25 20.5V22.5C11.25 22.9142 11.5858 23.25 12 23.25C12.4142 23.25 12.75 22.9142 12.75 22.5V20.5C12.75 20.0858 12.4142 19.75 12 19.75ZM4.22183 5.28249C3.92893 4.98959 3.92893 4.51472 4.22183 4.22183C4.51472 3.92893 4.98959 3.92893 5.28249 4.22183L6.6967 5.63604C6.98959 5.92893 6.98959 6.40381 6.6967 6.6967C6.40381 6.98959 5.92893 6.98959 5.63604 6.6967L4.22183 5.28249ZM17.3033 17.3033C17.0104 17.5962 17.0104 18.0711 17.3033 18.364L18.7175 19.7782C19.0104 20.0711 19.4853 20.0711 19.7782 19.7782C20.0711 19.4853 20.0711 19.0104 19.7782 18.7175L18.364 17.3033C18.0711 17.0104 17.5962 17.0104 17.3033 17.3033ZM18.7175 4.22183C19.0104 3.92893 19.4853 3.92893 19.7782 4.22183C20.0711 4.51472 20.0711 4.98959 19.7782 5.28249L18.364 6.6967C18.0711 6.98959 17.5962 6.98959 17.3033 6.6967C17.0104 6.40381 17.0104 5.92893 17.3033 5.63604L18.7175 4.22183ZM6.6967 17.3033C6.40381 17.0104 5.92893 17.0104 5.63604 17.3033L4.22183 18.7175C3.92893 19.0104 3.92893 19.4853 4.22183 19.7782C4.51472 20.0711 4.98959 20.0711 5.28249 19.7782L6.6967 18.364C6.98959 18.0711 6.98959 17.5962 6.6967 17.3033Z" fill="black"/>
<mask id="mask0_167_220061" style="mask-type:luminance" maskUnits="userSpaceOnUse" x="1" y="1" width="22" height="23">
<path id="&#229;&#144;&#136;&#229;&#185;&#182;&#229;&#189;&#162;&#231;&#138;&#182;_2" fill-rule="evenodd" clip-rule="evenodd" d="M11.25 1.75C11.25 1.33579 11.5858 1 12 1C12.4142 1 12.75 1.33579 12.75 1.75V3.75C12.75 4.16421 12.4142 4.5 12 4.5C11.5858 4.5 11.25 4.16421 11.25 3.75V1.75ZM5.5 12C5.5 15.5899 8.41015 18.5 12 18.5C15.5899 18.5 18.5 15.5899 18.5 12C18.5 8.41015 15.5899 5.5 12 5.5C8.41015 5.5 5.5 8.41015 5.5 12ZM17 12C17 14.7614 14.7614 17 12 17C9.23858 17 7 14.7614 7 12C7 9.23858 9.23858 7 12 7C14.7614 7 17 9.23858 17 12ZM1.75 12.75C1.33579 12.75 1 12.4142 1 12C1 11.5858 1.33579 11.25 1.75 11.25H3.75C4.16421 11.25 4.5 11.5858 4.5 12C4.5 12.4142 4.16421 12.75 3.75 12.75H1.75ZM19.5 12C19.5 12.4142 19.8358 12.75 20.25 12.75H22.25C22.6642 12.75 23 12.4142 23 12C23 11.5858 22.6642 11.25 22.25 11.25H20.25C19.8358 11.25 19.5 11.5858 19.5 12ZM12 19.75C11.5858 19.75 11.25 20.0858 11.25 20.5V22.5C11.25 22.9142 11.5858 23.25 12 23.25C12.4142 23.25 12.75 22.9142 12.75 22.5V20.5C12.75 20.0858 12.4142 19.75 12 19.75ZM4.22183 5.28249C3.92893 4.98959 3.92893 4.51472 4.22183 4.22183C4.51472 3.92893 4.98959 3.92893 5.28249 4.22183L6.6967 5.63604C6.98959 5.92893 6.98959 6.40381 6.6967 6.6967C6.40381 6.98959 5.92893 6.98959 5.63604 6.6967L4.22183 5.28249ZM17.3033 17.3033C17.0104 17.5962 17.0104 18.0711 17.3033 18.364L18.7175 19.7782C19.0104 20.0711 19.4853 20.0711 19.7782 19.7782C20.0711 19.4853 20.0711 19.0104 19.7782 18.7175L18.364 17.3033C18.0711 17.0104 17.5962 17.0104 17.3033 17.3033ZM18.7175 4.22183C19.0104 3.92893 19.4853 3.92893 19.7782 4.22183C20.0711 4.51472 20.0711 4.98959 19.7782 5.28249L18.364 6.6967C18.0711 6.98959 17.5962 6.98959 17.3033 6.6967C17.0104 6.40381 17.0104 5.92893 17.3033 5.63604L18.7175 4.22183ZM6.6967 17.3033C6.40381 17.0104 5.92893 17.0104 5.63604 17.3033L4.22183 18.7175C3.92893 19.0104 3.92893 19.4853 4.22183 19.7782C4.51472 20.0711 4.98959 20.0711 5.28249 19.7782L6.6967 18.364C6.98959 18.0711 6.98959 17.5962 6.6967 17.3033Z" fill="white"/>
</mask>
<g mask="url(#mask0_167_220061)">
<rect id="color/#000000" width="24" height="24" fill="white"/>
</g>
</g>
</g>
</svg>
