<svg width="24" height="24" viewBox="0 0 24 24" fill="none" xmlns="http://www.w3.org/2000/svg">
<g id="Frame">
<g id="_Public/ic_public_text">
<path id="_&#229;&#189;&#162;&#231;&#138;&#182;&#231;&#187;&#147;&#229;&#144;&#136;" d="M16.8722 2C18.6553 2 19.3018 2.18565 19.9537 2.53427C20.6055 2.88288 21.1171 3.39446 21.4657 4.04631C21.8143 4.69816 22 5.34473 22 7.12777V16.8722C22 18.6553 21.8143 19.3018 21.4657 19.9537C21.1171 20.6055 20.6055 21.1171 19.9537 21.4657C19.3018 21.8143 18.6553 22 16.8722 22H7.12777C5.34473 22 4.69816 21.8143 4.04631 21.4657C3.39446 21.1171 2.88288 20.6055 2.53427 19.9537C2.18565 19.3018 2 18.6553 2 16.8722V7.12777C2 5.34473 2.18565 4.69816 2.53427 4.04631C2.88288 3.39446 3.39446 2.88288 4.04631 2.53427C4.69816 2.18565 5.34473 2 7.12777 2H16.8722ZM16.8722 3.5H7.12777L6.64429 3.50451C5.60811 3.5259 5.18578 3.62591 4.75371 3.85699C4.36326 4.0658 4.0658 4.36326 3.85699 4.75371C3.62591 5.18578 3.5259 5.60811 3.50451 6.64429L3.5 7.12777V16.8722C3.5 18.2714 3.5929 18.7525 3.85699 19.2463C4.0658 19.6367 4.36326 19.9342 4.75371 20.143C5.18578 20.3741 5.60811 20.4741 6.64429 20.4955L7.12777 20.5H16.8722L17.3557 20.4955C18.3919 20.4741 18.8142 20.3741 19.2463 20.143C19.6367 19.9342 19.9342 19.6367 20.143 19.2463C20.3741 18.8142 20.4741 18.3919 20.4955 17.3557L20.5 16.8722V7.12777L20.4955 6.64429C20.4741 5.60811 20.3741 5.18578 20.143 4.75371C19.9342 4.36326 19.6367 4.0658 19.2463 3.85699C18.8142 3.62591 18.3919 3.5259 17.3557 3.50451L16.8722 3.5ZM16.1071 8.5L19.7262 17.25H18.2381L17.3095 14.9167L15.918 14.916L15.421 13.714L16.8452 13.7143L15.5 10.2738L14.78 12.164L14.142 10.622L14.9881 8.5H16.1071ZM10.942 5.5L15.806 17.25H13.806L12.558 14.124H7.742L6.558 17.25H4.75L9.438 5.5H10.942ZM10.126 7.884L8.366 12.508H11.934L10.126 7.884Z" fill="white"/>
</g>
</g>
</svg>
