<svg width="32" height="32" viewBox="0 0 32 32" fill="none" xmlns="http://www.w3.org/2000/svg">
<g id="img_cake">
<path id="Vector" d="M9.73119 20.1758C9.07507 20.4901 8.35688 20.6536 7.62934 20.6542C7.2837 20.6522 6.93921 20.6139 6.60156 20.54L8.80218 27.5924H12.1232L11.009 20.5307C10.5652 20.4902 10.1323 20.37 9.73119 20.1758Z" fill="#6ADDD6"/>
<path id="Vector_2" d="M19.9141 21.1408L18.8987 27.5945H22.2227L24.2505 21.0945C22.8728 21.6797 21.3195 21.6963 19.9295 21.1408H19.9141ZM15.4511 19.3074C15.0451 19.3064 14.6397 19.2754 14.2382 19.2148C13.8868 19.6343 13.4476 19.9714 12.9516 20.2023C12.4556 20.4332 11.9149 20.5524 11.3678 20.5513C11.2474 20.5513 11.1301 20.5513 11.0098 20.5327L12.124 27.5945H15.519V19.3043L15.4511 19.3074Z" fill="#00C4B8"/>
<path id="Vector_3" d="M17.34 19.0742C16.7411 19.2225 16.1267 19.2991 15.5098 19.3026V27.5927H18.9048L19.9203 21.139C18.8735 20.7236 17.9749 20.0045 17.34 19.0742Z" fill="#6ADDD6"/>
<path id="Vector_4" d="M9.7073 20.1592C10.1083 20.3542 10.5411 20.4754 10.9851 20.5173L10.448 17.0234H5.50977L6.59001 20.5296C6.92632 20.6053 7.26998 20.6436 7.6147 20.6438C8.33953 20.6394 9.05431 20.4739 9.7073 20.1592Z" fill="#6ADDD6"/>
<path id="Vector_5" d="M20.5455 17.0543L19.885 21.1531C21.2725 21.7159 22.8267 21.7048 24.206 21.1222L25.4838 17.0697L20.5455 17.0543ZM11.3418 20.5358C11.889 20.5383 12.4301 20.4204 12.9266 20.1906C13.4232 19.9607 13.8632 19.6244 14.2153 19.2055C14.6164 19.2697 15.022 19.3027 15.4282 19.3043H15.4869V17.042L10.4375 17.0234L10.9745 20.5173C11.0965 20.53 11.2191 20.5362 11.3418 20.5358Z" fill="#00C4B8"/>
<path id="Vector_6" d="M17.3202 19.0794C17.9495 20.0107 18.8426 20.7329 19.885 21.1535L20.5455 17.0547H15.4961V19.317C16.1115 19.3113 16.7239 19.2315 17.3202 19.0794Z" fill="#6ADDD6"/>
<path id="Vector_7" d="M22.7527 11.7685C22.8258 11.4978 22.8632 11.2187 22.8638 10.9382C22.8641 10.3545 22.7091 9.78108 22.4147 9.27697C22.1203 8.77285 21.6971 8.35615 21.1884 8.06963C20.6798 7.7831 20.1041 7.63707 19.5204 7.64653C18.9366 7.65599 18.3659 7.82059 17.8669 8.12344C17.1931 7.06629 16.1944 6.25637 15.0209 5.81539C13.8475 5.3744 12.5626 5.32618 11.3593 5.67796C10.1561 6.02975 9.09952 6.76253 8.34841 7.7662C7.59729 8.76987 7.1922 9.9902 7.19401 11.2438C7.19408 11.6462 7.23545 12.0474 7.31747 12.4413C6.79442 12.4929 6.29071 12.6663 5.84675 12.9476C5.40278 13.2289 5.03091 13.6103 4.76093 14.0613C4.49096 14.5122 4.3304 15.0202 4.29213 15.5444C4.25386 16.0686 4.33895 16.5944 4.54056 17.0798C4.74217 17.5652 5.05471 17.9966 5.4531 18.3394C5.8515 18.6822 6.32468 18.9269 6.8347 19.0539C7.34473 19.1808 7.8774 19.1865 8.39003 19.0705C8.90265 18.9545 9.38096 18.72 9.78661 18.3858C10.0572 18.6608 10.3942 18.8613 10.765 18.9678C11.1358 19.0744 11.5278 19.0834 11.9031 18.994C12.2784 18.9046 12.6243 18.7198 12.9072 18.4575C13.1901 18.1952 13.4006 17.8644 13.5181 17.4969C14.1455 17.7079 14.8038 17.8122 15.4656 17.8055C16.3743 17.8252 17.273 17.6128 18.0767 17.1883C18.3095 17.8876 18.7234 18.5128 19.2762 19.0003C19.8291 19.4878 20.5012 19.8201 21.2242 19.9635C21.9471 20.107 22.6952 20.0563 23.3923 19.8167C24.0893 19.5772 24.7105 19.1572 25.1926 18.5997C25.6747 18.0421 26.0005 17.3668 26.1368 16.6424C26.2732 15.9181 26.2153 15.1705 25.9689 14.4759C25.7226 13.7812 25.2966 13.1641 24.7344 12.6875C24.1722 12.2108 23.4937 11.8916 22.7681 11.7623L22.7527 11.7685Z" fill="#FF6B5B"/>
<path id="Vector_8" d="M14.0657 9.74619C14.0658 9.91136 14.0013 10.07 13.8859 10.1882C13.7706 10.3064 13.6136 10.3749 13.4485 10.3789H12.038C11.8729 10.3749 11.7159 10.3064 11.6005 10.1882C11.4852 10.07 11.4206 9.91136 11.4207 9.74619C11.4207 9.66513 11.4367 9.58486 11.4677 9.50996C11.4987 9.43507 11.5442 9.36702 11.6015 9.3097C11.6588 9.25238 11.7269 9.20692 11.8017 9.17589C11.8766 9.14487 11.9569 9.12891 12.038 9.12891H13.4392C13.5203 9.12891 13.6005 9.14487 13.6754 9.17589C13.7503 9.20692 13.8184 9.25238 13.8757 9.3097C13.933 9.36702 13.9785 9.43507 14.0095 9.50996C14.0405 9.58486 14.0565 9.66513 14.0565 9.74619H14.0657ZM18.5009 13.5425C18.5338 13.7065 18.5008 13.8769 18.4089 14.0167C18.3171 14.1565 18.1738 14.2545 18.0102 14.2894L16.6367 14.5733C16.4727 14.6063 16.3023 14.5732 16.1625 14.4813C16.0227 14.3895 15.9247 14.2462 15.8898 14.0826C15.8709 14.0012 15.8687 13.9168 15.8834 13.8346C15.8981 13.7523 15.9293 13.6739 15.9752 13.604C16.0211 13.5342 16.0807 13.4744 16.1504 13.4283C16.22 13.3822 16.2984 13.3507 16.3806 13.3357L17.754 13.0517C17.8354 13.0328 17.9198 13.0307 18.0021 13.0453C18.0843 13.06 18.1627 13.0913 18.2326 13.1371C18.3024 13.183 18.3622 13.2426 18.4083 13.3123C18.4545 13.382 18.486 13.4603 18.5009 13.5425ZM20.4207 11.3789C20.3812 11.4525 20.3272 11.5173 20.2619 11.5694C20.1967 11.6215 20.1215 11.6598 20.041 11.682C19.9605 11.7043 19.8763 11.7099 19.7936 11.6987C19.7108 11.6874 19.6312 11.6595 19.5596 11.6166L18.3404 10.9252C18.2673 10.8857 18.2028 10.8318 18.151 10.7668C18.0992 10.7018 18.061 10.6269 18.0388 10.5468C18.0166 10.4667 18.0109 10.3829 18.0219 10.3005C18.0328 10.218 18.0604 10.1387 18.1028 10.0672C18.1423 9.99401 18.1962 9.92958 18.2612 9.87776C18.3262 9.82593 18.401 9.78777 18.4812 9.76558C18.5613 9.74338 18.6451 9.73761 18.7275 9.74859C18.8099 9.75958 18.8893 9.78711 18.9608 9.82952L20.1954 10.5178C20.3403 10.6012 20.4464 10.7384 20.4909 10.8996C20.5354 11.0608 20.5146 11.233 20.433 11.3789H20.4207ZM13.2355 14.095C13.3272 14.2352 13.3598 14.4059 13.3262 14.57C13.2927 14.7342 13.1958 14.8784 13.0565 14.9715L11.8867 15.74C11.8181 15.7879 11.7405 15.8213 11.6585 15.8382C11.5766 15.8552 11.492 15.8553 11.4101 15.8385C11.3281 15.8218 11.2504 15.7886 11.1816 15.7408C11.1129 15.6931 11.0546 15.632 11.0102 15.561C10.963 15.4923 10.9301 15.4147 10.9137 15.333C10.8973 15.2512 10.8976 15.167 10.9146 15.0854C10.9316 15.0037 10.965 14.9264 11.0127 14.858C11.0605 14.7897 11.1215 14.7317 11.1923 14.6875L12.362 13.9159C12.4306 13.8686 12.508 13.8356 12.5896 13.8189C12.6712 13.8022 12.7554 13.8023 12.837 13.819C12.9186 13.8357 12.996 13.8688 13.0645 13.9162C13.133 13.9636 13.1911 14.0244 13.2355 14.095ZM8.38056 15.9005C8.34733 15.9769 8.29898 16.0458 8.23843 16.103C8.17788 16.1602 8.10637 16.2045 8.02823 16.2334C7.95008 16.2622 7.8669 16.2749 7.78371 16.2708C7.70052 16.2666 7.61902 16.2456 7.54414 16.2092L6.26945 15.6227C6.19307 15.5895 6.1242 15.5412 6.067 15.4806C6.0098 15.42 5.96544 15.3485 5.93661 15.2704C5.90777 15.1923 5.89505 15.1091 5.89921 15.0259C5.90337 14.9427 5.92432 14.8612 5.96081 14.7863C6.03189 14.6347 6.15993 14.5172 6.31711 14.4594C6.4743 14.4016 6.64794 14.4082 6.80031 14.4777L8.07501 15.0641C8.15139 15.0973 8.22025 15.1457 8.27746 15.2062C8.33466 15.2668 8.37901 15.3383 8.40785 15.4164C8.43669 15.4946 8.44941 15.5777 8.44525 15.6609C8.44109 15.7441 8.42014 15.8256 8.38365 15.9005H8.38056ZM23.3929 15.2431C23.4324 15.3167 23.4565 15.3975 23.4638 15.4806C23.4712 15.5638 23.4616 15.6476 23.4356 15.7269C23.4097 15.8063 23.3679 15.8795 23.3128 15.9422C23.2577 16.005 23.1905 16.0559 23.1151 16.0919L21.8806 16.7092C21.8072 16.7487 21.7266 16.773 21.6435 16.7806C21.5605 16.7881 21.4768 16.7788 21.3975 16.7531C21.3182 16.7275 21.2449 16.686 21.182 16.6312C21.1192 16.5765 21.0681 16.5095 21.0318 16.4345C20.9923 16.3609 20.9682 16.2801 20.9609 16.1969C20.9535 16.1138 20.9631 16.03 20.9891 15.9506C21.015 15.8713 21.0568 15.7981 21.1119 15.7353C21.167 15.6726 21.2343 15.6217 21.3096 15.5857L22.5318 14.9653C22.6054 14.9259 22.6862 14.9017 22.7693 14.8944C22.8525 14.887 22.9363 14.8966 23.0156 14.9226C23.095 14.9486 23.1682 14.9904 23.2309 15.0455C23.2937 15.1005 23.3446 15.1678 23.3806 15.2431H23.3929Z" fill="white"/>
</g>
</svg>
