<svg width="32" height="32" viewBox="0 0 32 32" fill="none" xmlns="http://www.w3.org/2000/svg">
<g id="img_apple">
<path id="Vector" d="M15.3909 7.04362C15.5667 7.21954 15.8043 7.33029 16.09 7.36957C16.3758 7.40884 16.7041 7.37586 17.0562 7.27251C17.4083 7.16916 17.7773 6.99746 18.1421 6.76722C18.507 6.53698 18.8605 6.25271 19.1826 5.93065C19.5047 5.60858 19.7889 5.25502 20.0191 4.89015C20.2494 4.52529 20.421 4.15627 20.5244 3.80417C20.6277 3.45206 20.6607 3.12377 20.6214 2.83804C20.5821 2.5523 20.4714 2.31472 20.2954 2.13887C20.1196 1.96295 19.882 1.85219 19.5963 1.81292C19.3105 1.77365 18.9822 1.80663 18.6301 1.90998C18.278 2.01333 17.909 2.18503 17.5442 2.41527C17.1793 2.6455 16.8258 2.92977 16.5037 3.25184C16.1816 3.57391 15.8974 3.92747 15.6672 4.29234C15.4369 4.6572 15.2652 5.02622 15.1619 5.37832C15.0586 5.73043 15.0256 6.05872 15.0649 6.34445C15.1042 6.63018 15.2149 6.86776 15.3909 7.04362Z" fill="#95BD65"/>
<path id="Vector_2" d="M19 8C17.9466 8 16.9397 8.19031 16 8.52312C15.0603 8.19031 14.0534 8 13 8C8.02938 8 4 12.0294 4 17C4 21.9706 8.02938 29 13 29C14.0534 29 15.0603 28.8097 16 28.4769C16.9397 28.8094 17.9466 29 19 29C23.9706 29 28 21.9706 28 17C28 12.0294 23.9706 8 19 8Z" fill="#DF7867"/>
</g>
</svg>
