<svg width="32" height="32" viewBox="0 0 32 32" fill="none" xmlns="http://www.w3.org/2000/svg">
<g id="img_smile">
<path id="Vector" d="M15.9923 1.89453C8.29478 1.89453 2.05469 8.13222 2.05469 15.8268C2.05469 23.5214 8.29478 29.7591 15.9923 29.7591C23.6898 29.7591 29.9299 23.5214 29.9299 15.8268C29.9299 8.13222 23.6898 1.89453 15.9923 1.89453ZM20.3369 9.85489L21.1024 8.39544L21.868 9.85489L23.4251 10.1693L22.3412 11.3856L22.538 13.0395L21.1024 12.3317L19.667 13.0395L19.8637 11.3856L18.7799 10.1693L20.3369 9.85489ZM9.6205 9.85489L10.3861 8.39544L11.1516 9.85489L12.7086 10.1693L11.6247 11.3856L11.8215 13.0395L10.3861 12.3317L8.95059 13.0395L9.14722 11.3856L8.06348 10.1693L9.6205 9.85489ZM15.9923 24.2599C11.7933 24.2599 8.3894 21.708 8.3894 18.56H23.5952C23.5952 21.708 20.1913 24.2599 15.9923 24.2599Z" fill="#FF8A00"/>
</g>
</svg>
