<svg width="32" height="32" viewBox="0 0 32 32" fill="none" xmlns="http://www.w3.org/2000/svg">
<g id="img_chat">
<path id="Vector" d="M26.6658 5.33206H5.3325C4.26581 5.33206 3.55469 6.04316 3.55469 7.10984V21.332C3.55469 22.3987 4.26581 23.1098 5.3325 23.1098H26.6658C27.7325 23.1098 28.4436 22.3987 28.4436 21.332V7.10984C28.4436 6.04316 27.7325 5.33203 26.6658 5.33203V5.33206ZM8.88803 15.9987C7.82137 15.9987 7.11028 15.2876 7.11028 14.2209C7.11028 13.1543 7.82137 12.4432 8.88803 12.4432C9.95469 12.4432 10.6658 13.1543 10.6658 14.221C10.6658 15.2877 9.95469 15.9987 8.888 15.9987H8.88803ZM15.9992 15.9987C14.9325 15.9987 14.2214 15.2876 14.2214 14.2209C14.2214 13.1543 14.9325 12.4432 15.9992 12.4432C17.0658 12.4432 17.7769 13.1543 17.7769 14.221C17.7769 15.2877 17.0658 15.9987 15.9992 15.9987ZM23.1103 15.9987C22.0436 15.9987 21.3325 15.2876 21.3325 14.2209C21.3325 13.1543 22.0436 12.4432 23.1103 12.4432C24.177 12.4432 24.888 13.1543 24.888 14.221C24.888 15.2877 24.177 15.9987 23.1103 15.9987Z" fill="#9ED048"/>
<path id="Vector_2" d="M12.4446 23.1098L7.11133 26.6653V21.332H12.4446V23.1098Z" fill="#9ED048"/>
</g>
</svg>
