<?xml version="1.0" encoding="UTF-8"?>
<svg width="48px" height="48px" viewBox="0 0 48 48" version="1.1" xmlns="http://www.w3.org/2000/svg" xmlns:xlink="http://www.w3.org/1999/xlink">
    <title>ic_audio_track_disable</title>
    <g id="ic_audio_track_disable" stroke="none" stroke-width="1" fill="none" fill-rule="evenodd">
        <circle id="椭圆形" fill-opacity="0.05" fill="#182431" opacity="0.4" cx="24" cy="24" r="24"></circle>
        <g id="编组" transform="translate(14.600000, 11.733333)">
            <path d="M5.22319225,17.6667084 C5.51177899,16.5213657 6.26162094,12.9536753 9.18353252,13.0006821 C12.1054441,13.0476888 12.8680572,17.5754866 13.1438728,19.1391787 C13.248328,19.7375068 13.319988,20.5278688 13.3588527,21.5093124 C13.4100806,22.7959429 13.0573316,23.8254159 12.5708708,23.8021383 C12.5398594,23.8005313 12.508697,23.7946741 12.4775135,23.7846024 L5.88338876,21.6629201 C5.39422818,21.5061043 4.9974568,20.5829458 4.99717495,19.6010239 C4.99717495,19.5394694 4.99873229,19.4783575 5.00177847,19.417872 C5.03993667,18.678019 5.11374127,18.0946654 5.22319225,17.6667084 Z M9.18353252,2.25302501 C8.02177595,2.6268242 7.07998617,4.96271922 7.07998617,7.47039258 C7.07998617,9.97806593 8.02177595,11.9957856 9.18353252,11.9770957 C10.3452891,11.9584057 11.2870789,9.62251068 11.2870789,6.75972811 C11.2870789,3.89694553 10.3452891,1.87922583 9.18353252,2.25302501 Z" id="形状结合" fill-opacity="0.4" fill="#182431" fill-rule="nonzero"></path>
            <path d="M15.3259949,7.31153096 C15.5888163,7.93759167 15.7194209,8.62494688 15.6780833,9.31388301 C15.6335003,10.0569064 15.3948748,10.6949443 15.0189408,11.181128" id="形状结合" opacity="0.4" stroke="#182431" stroke-width="1.33333333" stroke-linecap="round" transform="translate(15.518941, 9.246329) rotate(2.000000) translate(-15.518941, -9.246329) "></path>
            <path d="M18.2678163,5.31893406 C18.9918816,6.80119806 19.3601884,8.48985948 19.2529384,10.2031998 C19.1451231,11.9255718 18.571397,13.4007138 17.6707671,14.5053003" id="形状结合" opacity="0.4" stroke="#182431" stroke-width="1.33333333" stroke-linecap="round" transform="translate(18.471011, 9.912117) rotate(5.000000) translate(-18.471011, -9.912117) "></path>
            <path d="M4.48585401,2.91160604 C4.19711739,3.31074599 4.01485176,3.81126295 3.97865606,4.3886458 C3.93961871,5.01135807 4.07570339,5.64780806 4.34327346,6.23920462" id="路径" opacity="0.4" stroke="#182431" stroke-width="1.33333333" stroke-linecap="round" transform="translate(4.228961, 4.575405) rotate(8.000000) translate(-4.228961, -4.575405) "></path>
            <path d="M1.88558887,0.0601802246 C1.13544338,0.934917961 0.657794614,2.04481253 0.567650405,3.3332146 C0.477031014,4.62840827 0.790344918,5.96549774 1.4053002,7.22565115" id="路径" opacity="0.4" stroke="#182431" stroke-width="1.33333333" stroke-linecap="round" transform="translate(1.218922, 3.642916) rotate(9.000000) translate(-1.218922, -3.642916) "></path>
        </g>
    </g>
</svg>