<?xml version="1.0" encoding="UTF-8"?>
<svg width="48px" height="48px" viewBox="0 0 48 48" version="1.1" xmlns="http://www.w3.org/2000/svg" xmlns:xlink="http://www.w3.org/1999/xlink">
    <title>ic_audio_track_normal</title>
    <g id="ic_audio_track_normal" stroke="none" stroke-width="1" fill="none" fill-rule="evenodd">
        <circle id="椭圆形" fill-opacity="0.05" fill="#182431" cx="24" cy="24" r="24"></circle>
        <path d="M19.8231922,29.4000418 C20.111779,28.254699 20.8616209,24.6870087 23.7835325,24.7340154 C26.7054441,24.7810221 27.4680572,29.30882 27.7438728,30.872512 C27.848328,31.4708401 27.919988,32.2612021 27.9588527,33.2426457 C28.0100806,34.5292763 27.6573316,35.5587493 27.1708708,35.5354716 C27.1398594,35.5338647 27.108697,35.5280074 27.0775135,35.5179358 L20.4833888,33.3962535 C19.9942282,33.2394376 19.5974568,32.3162791 19.5971749,31.3343572 C19.5971749,31.2728027 19.5987323,31.2116909 19.6017785,31.1512053 C19.6399367,30.4113523 19.7137413,29.8279987 19.8231922,29.4000418 Z M23.7835325,13.9863583 C22.6217759,14.3601575 21.6799862,16.6960526 21.6799862,19.2037259 C21.6799862,21.7113993 22.6217759,23.729119 23.7835325,23.710429 C24.9452891,23.691739 25.8870789,21.355844 25.8870789,18.4930614 C25.8870789,15.6302789 24.9452891,13.6125592 23.7835325,13.9863583 Z" id="形状结合" fill="#182431" fill-rule="nonzero"></path>
        <path d="M29.9259949,19.0448643 C30.1888163,19.670925 30.3194209,20.3582802 30.2780833,21.0472163 C30.2335003,21.7902398 29.9948748,22.4282776 29.6189408,22.9144613" id="形状结合" stroke="#182431" stroke-width="1.33333333" stroke-linecap="round" transform="translate(30.118941, 20.979663) rotate(2.000000) translate(-30.118941, -20.979663) "></path>
        <path d="M32.8678163,17.0522674 C33.5918816,18.5345314 33.9601884,20.2231928 33.8529384,21.9365332 C33.7451231,23.6589051 33.171397,25.1340471 32.2707671,26.2386336" id="形状结合" stroke="#182431" stroke-width="1.33333333" stroke-linecap="round" transform="translate(33.071011, 21.645451) rotate(5.000000) translate(-33.071011, -21.645451) "></path>
        <path d="M19.085854,14.6449394 C18.7971174,15.0440793 18.6148518,15.5445963 18.5786561,16.1219791 C18.5396187,16.7446914 18.6757034,17.3811414 18.9432735,17.972538" id="路径" stroke="#182431" stroke-width="1.33333333" stroke-linecap="round" transform="translate(18.828961, 16.308739) rotate(8.000000) translate(-18.828961, -16.308739) "></path>
        <path d="M16.4855889,11.7935136 C15.7354434,12.6682513 15.2577946,13.7781459 15.1676504,15.0665479 C15.077031,16.3617416 15.3903449,17.6988311 16.0053002,18.9589845" id="路径" stroke="#182431" stroke-width="1.33333333" stroke-linecap="round" transform="translate(15.818922, 15.376249) rotate(9.000000) translate(-15.818922, -15.376249) "></path>
    </g>
</svg>