<?xml version="1.0" encoding="UTF-8"?>
<svg width="48px" height="48px" viewBox="0 0 48 48" version="1.1" xmlns="http://www.w3.org/2000/svg" xmlns:xlink="http://www.w3.org/1999/xlink">
    <title>ic_audio_open_on</title>
    <g id="ic_audio_open_on" stroke="none" stroke-width="1" fill="none" fill-rule="evenodd">
        <circle id="椭圆形" fill="#007DFF" cx="24" cy="24" r="24"></circle>
        <path d="M16.0508351,29.3580247 C16.6300843,28.1809586 18.1351613,24.6666667 24,24.6666667 C29.8648387,24.6666667 31.39555,28.1809586 31.9491649,29.3580247 C32.1588266,29.8037962 32.3026619,30.4000507 32.3806709,31.1467884 C32.4834951,32.1232289 31.7754599,32.9982841 30.7990395,33.1012989 C30.7361099,33.1079381 30.6728708,33.1112127 30.609592,33.1111111 L17.3739149,33.1111111 C16.3920755,33.1105377 15.5966021,32.3141349 15.5971752,31.3322955 C15.5972108,31.2714332 15.6003717,31.2106129 15.6064151,31.1500509 C15.683006,30.4017872 15.831146,29.8044452 16.0508351,29.3580247 Z" id="矩形" fill="#FFFFFF" fill-rule="nonzero"></path>
        <path d="M24,15.3333333 C21.6681311,15.3333333 19.7777778,17.2236866 19.7777778,19.5555556 C19.7777778,21.8874245 21.6681311,23.7777778 24,23.7777778 C26.3318689,23.7777778 28.2222222,21.8874245 28.2222222,19.5555556 C28.2222222,17.2236866 26.3318689,15.3333333 24,15.3333333 Z" id="路径" fill="#FFFFFF" fill-rule="nonzero"></path>
        <path d="M30.5560525,17.6666667 C30.2207085,18.2518327 30.0289995,18.9298487 30.0289995,19.6526407 C30.0289995,20.4321779 30.2519916,21.1596326 30.6376672,21.7746959" id="路径" stroke="#FFFFFF" stroke-width="1.33333333" stroke-linecap="round" transform="translate(30.333333, 19.720681) scale(-1, 1) translate(-30.333333, -19.720681) "></path>
        <path d="M17.8893859,17.6666667 C17.5540418,18.2518327 17.3623328,18.9298487 17.3623328,19.6526407 C17.3623328,20.4321779 17.585325,21.1596326 17.9710005,21.7746959" id="路径备份" stroke="#FFFFFF" stroke-width="1.33333333" stroke-linecap="round"></path>
        <path d="M14.6534196,14.6831778 C13.8175916,16.0285119 13.3333333,17.6258771 13.3333333,19.3392174 C13.3333333,21.0615894 13.8227104,22.6667603 14.6666667,24.0165112" id="路径" stroke="#FFFFFF" stroke-width="1.33333333" stroke-linecap="round"></path>
        <path d="M34.6534196,14.6831778 C33.8175916,16.0285119 33.3333333,17.6258771 33.3333333,19.3392174 C33.3333333,21.0615894 33.8227104,22.6667603 34.6666667,24.0165112" id="路径" stroke="#FFFFFF" stroke-width="1.33333333" stroke-linecap="round" transform="translate(34.000000, 19.349845) scale(-1, 1) translate(-34.000000, -19.349845) "></path>
    </g>
</svg>