<?xml version="1.0" encoding="UTF-8"?>
<svg width="72px" height="72px" viewBox="0 0 72 72" version="1.1" xmlns="http://www.w3.org/2000/svg" xmlns:xlink="http://www.w3.org/1999/xlink">
    <title>ic_spatialaudio</title>
    <g id="ic_spatialaudio" stroke="none" stroke-width="1" fill="none" fill-rule="evenodd">
        <circle id="椭圆形" fill="#F1F3F5" cx="36" cy="36" r="36"></circle>
        <path d="M45.8828128,36.712308 C47.5640653,34.0217416 50.3810798,32.7492228 52.1747908,33.8700578 C52.4453079,34.0390956 52.6532752,34.3506632 53.4483569,35.1520227 C54.5702025,36.2827261 55.5463366,37.682019 55.5463366,39.5166747 C55.5463366,42.3275362 53.3103222,44.7810866 50.4623294,44.7810866 C49.2736327,44.7810866 46.6866702,44.0910165 46.0919484,43.7883541 C44.2070718,42.8291137 44.2015603,39.4028745 45.8828128,36.712308 Z" id="路径" fill="#1D1F27" opacity="0.2"></path>
        <path d="M52.4700362,38.5286179 C52.5780463,38.5440858 52.6785634,38.5802326 52.7685095,38.6386443 C53.328681,39.0024239 53.2667118,40.0920159 52.6300975,41.0723161 C51.9934831,42.0526163 51.0232964,42.5524049 50.4631249,42.1886253 C50.4016943,42.1487318 50.3477456,42.1001095 50.3012164,42.0438599 C50.3091473,41.4217566 50.5513754,40.6647119 51.0164199,39.9486061 C51.4206912,39.326083 51.9217142,38.8448037 52.41695,38.5585797 L52.4700362,38.5286179 Z" id="路径" fill="#000000" opacity="0.6"></path>
        <path d="M52.5012903,38.5116905 C53.035227,38.2266148 53.5556103,38.1727474 53.9331618,38.4179322 C54.6800571,38.9029717 54.585144,40.3746822 53.7211673,41.7050896 C52.8571907,43.035497 51.5513209,43.7208031 50.8044255,43.2357636 C50.4595294,43.0117854 50.2941357,42.5774152 50.3010816,42.0437198 C50.347672,42.1000432 50.4016523,42.1487046 50.4631249,42.1886253 C51.0232964,42.5524049 51.9934831,42.0526163 52.6300975,41.0723161 C53.2667118,40.0920159 53.328681,39.0024239 52.7685095,38.6386443 C52.6785634,38.5802326 52.5780463,38.5440858 52.4700362,38.5286179 L52.5012903,38.5116905 Z" id="路径" fill="#1E1F27" opacity="0.4"></path>
        <path d="M43.9563435,28.7833333 C46.9461081,28.7833333 49.4474491,30.9901305 51.0908266,33.4881435 C49.3801228,33.2671355 47.253829,34.5182235 45.8828128,36.712308 C44.4428863,39.0166721 44.2402429,41.8606702 45.3958812,43.2322722 L45.4123169,43.2514976 L45.4315398,43.2564241 L45.4315398,43.2564241 C45.6177201,43.4678744 45.8377425,43.6421153 46.0919484,43.7714843 L46.1331496,43.7915854 L46.1331496,43.7915854 L46.1797011,43.8127019 L46.1797011,43.8127019 L46.231399,43.8347688 L46.231399,43.8347688 L46.2880397,43.8577215 L46.2880397,43.8577215 L46.3818226,43.8936698 L46.3818226,43.8936698 L46.4499287,43.9185536 L46.4499287,43.9185536 L46.5222644,43.9440966 L46.5222644,43.9440966 L46.598626,43.9702341 L46.598626,43.9702341 L46.6788098,43.9969011 L46.6788098,43.9969011 L46.8058063,44.0377532 L46.8058063,44.0377532 L46.9402566,44.0794329 L46.9402566,44.0794329 L47.0336915,44.1075711 L47.0336915,44.1075711 L47.1790367,44.1501443 L47.1790367,44.1501443 L47.2790982,44.1786759 L47.2790982,44.1786759 L47.4334283,44.2215358 L47.4334283,44.2215358 L47.5922324,44.2642762 L47.5922324,44.2642762 L47.7548229,44.3066787 L47.7548229,44.3066787 L47.8649806,44.3346513 L47.8649806,44.3346513 L48.0323539,44.376005 C48.0510721,44.3805527 48.0698265,44.3850834 48.0886128,44.3895957 L48.088428,53.4750577 C48.088428,54.1986463 47.5018435,54.7852308 46.7782548,54.7852308 L42.4446053,54.7852308 C41.7210166,54.7852308 41.1344321,54.1986463 41.1344321,53.4750577 L41.1343135,41.8740333 L41.1057204,41.8600842 C41.0862753,41.8511367 41.0662201,41.8430416 41.0455424,41.8358385 L41.0609058,41.8436265 C38.6440651,40.6215155 37.1031302,38.4153869 37.1031302,35.6365466 C37.1031302,31.8516214 40.1714183,28.7833333 43.9563435,28.7833333 Z" id="路径" fill="#1D1F27" opacity="0.4"></path>
        <ellipse id="椭圆形" fill="#000000" opacity="0.6" transform="translate(40.378563, 33.273646) rotate(34.000000) translate(-40.378563, -33.273646) " cx="40.378563" cy="33.273646" rx="2.36838989" ry="2.97308518"></ellipse>
        <path d="M39.269955,33.822687 C39.7856116,33.822687 40.0258241,33.2361025 40.0258241,32.5125139 C40.0258241,31.7889252 39.8110966,31.2023407 39.269955,31.2023407 C38.7288133,31.2023407 38.5140859,31.7889252 38.5140859,32.5125139 C38.5140859,33.2361025 38.7542984,33.822687 39.269955,33.822687 Z" id="椭圆形" fill="#000000" opacity="0.6" transform="translate(39.269955, 32.512514) rotate(33.000000) translate(-39.269955, -32.512514) "></path>
        <path d="M27.7623867,21.2 C30.7521513,21.2 33.2534923,23.4067972 34.8968698,25.9048102 C33.186166,25.6838021 31.0598722,26.9348901 29.688856,29.1289747 C28.2489295,31.4333387 28.0462861,34.2773368 29.2019244,35.6489389 L29.2183601,35.6681643 L29.237583,35.6730908 L29.237583,35.6730908 C29.4237633,35.8845411 29.6437857,36.058782 29.8979916,36.1881509 L29.9391928,36.2082521 L29.9391928,36.2082521 L29.9857443,36.2293685 L29.9857443,36.2293685 L30.0374422,36.2514355 L30.0374422,36.2514355 L30.0940829,36.2743882 L30.0940829,36.2743882 L30.1878658,36.3103364 L30.1878658,36.3103364 L30.2559719,36.3352203 L30.2559719,36.3352203 L30.3283076,36.3607633 L30.3283076,36.3607633 L30.4046692,36.3869007 L30.4046692,36.3869007 L30.484853,36.4135678 L30.484853,36.4135678 L30.6118495,36.4544199 L30.6118495,36.4544199 L30.7462998,36.4960995 L30.7462998,36.4960995 L30.8397347,36.5242378 L30.8397347,36.5242378 L30.9850799,36.566811 L30.9850799,36.566811 L31.0851414,36.5953426 L31.0851414,36.5953426 L31.2394715,36.6382024 L31.2394715,36.6382024 L31.3982756,36.6809428 L31.3982756,36.6809428 L31.5608661,36.7233453 L31.5608661,36.7233453 L31.6710238,36.751318 L31.6710238,36.751318 L31.8383971,36.7926717 C31.8571153,36.7972194 31.8758697,36.8017501 31.894656,36.8062624 L31.8944712,45.8917244 C31.8944712,46.615313 31.3078867,47.2018975 30.584298,47.2018975 L26.2506485,47.2018975 C25.5270598,47.2018975 24.9404753,46.615313 24.9404753,45.8917244 L24.9403567,34.2907 L24.9117636,34.2767509 C24.8923185,34.2678033 24.8722633,34.2597082 24.8515856,34.2525052 L24.866949,34.2602932 C22.4501083,33.0381822 20.9091734,30.8320536 20.9091734,28.0532133 C20.9091734,24.2682881 23.9774615,21.2 27.7623867,21.2 Z" id="路径" fill="#1D1F27" opacity="0.4" transform="translate(27.903022, 34.200949) scale(-1, 1) translate(-27.903022, -34.200949) "></path>
        <path d="M17.6876059,29.1289747 C19.3688585,26.4384082 22.185873,25.1658895 23.979584,26.2867245 C24.250101,26.4557623 24.4580683,26.7673299 25.25315,27.5686894 C26.3749956,28.6993928 27.3511297,30.0986857 27.3511297,31.9333414 C27.3511297,34.7442028 25.1151153,37.1977533 22.2671226,37.1977533 C21.0784258,37.1977533 18.4914634,36.5076831 17.8967415,36.2050208 C16.011865,35.2457803 16.0063534,31.8195412 17.6876059,29.1289747 Z" id="路径" fill="#1D1F27" opacity="0.2" transform="translate(21.902397, 31.538644) scale(-1, 1) translate(-21.902397, -31.538644) "></path>
        <path d="M21.0176199,30.9452776 C21.1255898,30.9607525 21.226107,30.9968993 21.3160531,31.0553109 C21.8762246,31.4190906 21.8142554,32.5086826 21.177641,33.4889828 C20.5410267,34.4692829 19.57084,34.9690716 19.0106684,34.6052919 C18.9492379,34.5653985 18.8952892,34.5167762 18.8487599,34.4605266 C18.852482,34.1685703 18.9078073,33.8468935 19.0135494,33.5136757 L19.0429806,33.4243932 L19.0429806,33.4243932 L19.0628459,33.3676717 L19.0628459,33.3676717 L19.0799778,33.3207141 L19.0799778,33.3207141 L19.1050264,33.2548151 L19.1050264,33.2548151 L19.1306131,33.1905826 L19.1306131,33.1905826 L19.1494722,33.1449719 C19.1551827,33.1313528 19.160979,33.1177297 19.1668556,33.1040999 C19.2252325,32.9687106 19.2915495,32.8326421 19.3657306,32.6970625 L19.4000223,32.6354168 L19.4000223,32.6354168 L19.4353927,32.5738715 L19.4762155,32.5052049 L19.4762155,32.5052049 L19.5276353,32.4220118 L19.5639635,32.3652728 L19.6087655,32.2974465 L19.6087655,32.2974465 L19.6460774,32.2426674 L19.6803709,32.1936183 L19.7243197,32.1324909 C19.7581874,32.0861115 19.7925544,32.0406948 19.8273945,31.9962335 L19.868962,31.9439167 L19.868962,31.9439167 L19.910956,31.8925056 C19.9412763,31.8558955 19.9719166,31.8199897 20.0028419,31.7848089 L20.0494513,31.7325708 L20.0975505,31.6802704 L20.0975505,31.6802704 L20.1459877,31.6291974 C20.1856414,31.5880286 20.2255955,31.5481004 20.2658546,31.5093765 L20.2875928,31.4886123 L20.3257705,31.4528401 L20.3849513,31.3991054 L20.434163,31.3559781 L20.434163,31.3559781 L20.4837366,31.3139322 L20.4837366,31.3139322 L20.5346552,31.2721805 L20.5346552,31.2721805 L20.5750808,31.2400532 L20.6240933,31.2022968 L20.6736501,31.165438 L20.6736501,31.165438 L20.7233126,31.1298151 L20.7742651,31.094623 L20.7742651,31.094623 L20.8252934,31.0607461 L20.8478519,31.0462041 L20.8478519,31.0462041 L20.8704395,31.0319095 C20.8966368,31.0154846 20.922862,30.99958 20.9490741,30.9842201 L20.9724734,30.9706509 L21.0176199,30.9452776 Z" id="路径" fill="#000000" opacity="0.6" transform="translate(20.273772, 32.834679) scale(-1, 1) translate(-20.273772, -32.834679) "></path>
        <path d="M19.732489,30.9452776 C20.2773138,30.6454933 20.8106692,30.5846384 21.1955745,30.8345989 C21.9424699,31.3196384 21.8475567,32.7913489 20.9835801,34.1217563 C20.1196034,35.4521637 18.8137336,36.1374698 18.0668382,35.6524302 C17.521052,35.2979925 17.4247753,34.4166915 17.749623,33.4486638 C17.6300796,33.8049895 17.5675928,34.149611 17.5636291,34.4605266 C17.6101584,34.5167762 17.664107,34.5653985 17.7255376,34.6052919 C18.2857091,34.9690716 19.2558958,34.4692829 19.8925102,33.4889828 C20.5291246,32.5086826 20.5910938,31.4190906 20.0309222,31.0553109 C19.9509702,31.0033895 19.8626656,30.96906 19.7681706,30.9512086 L19.732489,30.9452776 Z" id="路径" fill="#1E1F27" opacity="0.4" transform="translate(19.631206, 33.243515) scale(-1, 1) translate(-19.631206, -33.243515) "></path>
        <ellipse id="椭圆形" fill="#000000" opacity="0.6" transform="translate(31.621437, 25.690313) scale(-1, 1) rotate(34.000000) translate(-31.621437, -25.690313) " cx="31.621437" cy="25.6903127" rx="2.36838989" ry="2.97308518"></ellipse>
        <path d="M32.730045,26.2393537 C33.2457016,26.2393537 33.4859141,25.6527692 33.4859141,24.9291805 C33.4859141,24.2055919 33.2711867,23.6190074 32.730045,23.6190074 C32.1889034,23.6190074 31.9741759,24.2055919 31.9741759,24.9291805 C31.9741759,25.6527692 32.2143884,26.2393537 32.730045,26.2393537 Z" id="椭圆形" fill="#000000" opacity="0.6" transform="translate(32.730045, 24.929181) scale(-1, 1) rotate(33.000000) translate(-32.730045, -24.929181) "></path>
    </g>
</svg>