<?xml version="1.0" encoding="UTF-8"?>
<svg width="36px" height="36px" viewBox="0 0 36 36" version="1.1" xmlns="http://www.w3.org/2000/svg" xmlns:xlink="http://www.w3.org/1999/xlink">
    <title>ic_play</title>
    <defs>
        <path d="M18,1.5 C27.1126984,1.5 34.5,8.88730163 34.5,18 C34.5,27.1126984 27.1126984,34.5 18,34.5 C8.88730163,34.5 1.5,27.1126984 1.5,18 C1.5,8.88730163 8.88730163,1.5 18,1.5 Z M18,3.75 C10.1299423,3.75 3.75,10.1299423 3.75,18 C3.75,25.8700577 10.1299423,32.25 18,32.25 C25.8700577,32.25 32.25,25.8700577 32.25,18 C32.25,10.1299423 25.8700577,3.75 18,3.75 Z M14.25,11.25 C15.0784271,11.25 15.75,11.9215729 15.75,12.75 L15.75,23.25 C15.75,24.0784271 15.0784271,24.75 14.25,24.75 C13.4215729,24.75 12.75,24.0784271 12.75,23.25 L12.75,12.75 C12.75,11.9215729 13.4215729,11.25 14.25,11.25 Z M21.75,11.25 C22.5784271,11.25 23.25,11.9215729 23.25,12.75 L23.25,23.25 C23.25,24.0784271 22.5784271,24.75 21.75,24.75 C20.9215729,24.75 20.25,24.0784271 20.25,23.25 L20.25,12.75 C20.25,11.9215729 20.9215729,11.25 21.75,11.25 Z" id="path-1"></path>
    </defs>
    <g id="ic_play" stroke="none" stroke-width="1" fill="none" fill-rule="evenodd">
        <mask id="mask-2" fill="white">
            <use xlink:href="#path-1"></use>
        </mask>
        <use id="形状结合" fill="#182431" fill-rule="nonzero" xlink:href="#path-1"></use>
    </g>
</svg>