<?xml version="1.0" encoding="UTF-8"?>
<svg width="36px" height="36px" viewBox="0 0 36 36" version="1.1" xmlns="http://www.w3.org/2000/svg" xmlns:xlink="http://www.w3.org/1999/xlink">
    <title>ic_pause</title>
    <defs>
        <path d="M18,1.5 C27.1126984,1.5 34.5,8.88730163 34.5,18 C34.5,27.1126984 27.1126984,34.5 18,34.5 C8.88730163,34.5 1.5,27.1126984 1.5,18 C1.5,8.88730163 8.88730163,1.5 18,1.5 Z M18,3.75 C10.1299423,3.75 3.75,10.1299423 3.75,18 C3.75,25.8700577 10.1299423,32.25 18,32.25 C25.8700577,32.25 32.25,25.8700577 32.25,18 C32.25,10.1299423 25.8700577,3.75 18,3.75 Z M24.2235678,19.6195854 L16.3197582,24.2301411 C15.4252858,24.7519166 14.2771901,24.4497861 13.7554146,23.5553138 C13.5881407,23.2685587 13.5,22.9425331 13.5,22.6105556 L13.5,13.3894444 C13.5,12.3539105 14.3394661,11.5144444 15.375,11.5144444 C15.7069774,11.5144444 16.0330031,11.6025851 16.3197582,11.7698589 L24.2235678,16.3804146 C25.1180402,16.9021901 25.4201706,18.0502858 24.8983951,18.9447582 C24.7354224,19.22414 24.5029496,19.4566127 24.2235678,19.6195854 Z" id="path-1"></path>
    </defs>
    <g id="ic_pause" stroke="none" stroke-width="1" fill="none" fill-rule="evenodd">
        <mask id="mask-2" fill="white">
            <use xlink:href="#path-1"></use>
        </mask>
        <use id="形状结合" fill="#182431" fill-rule="nonzero" xlink:href="#path-1"></use>
    </g>
</svg>