<?xml version="1.0" encoding="UTF-8"?>
<svg width="24px" height="24px" viewBox="0 0 24 24" version="1.1" xmlns="http://www.w3.org/2000/svg" xmlns:xlink="http://www.w3.org/1999/xlink">
    <title>ic_space_music</title>
    <defs>
        <path d="M20.4685995,3.76981657 C20.4837672,3.86618904 20.4932763,3.96333912 20.4970878,4.06076767 L20.4989987,4.15827057 L20.5,15.2499323 L20.498186,15.2641337 L20.498814,16.3478965 C20.498814,18.2169213 19.170289,19.7571952 17.4591633,19.9665276 L17.3811246,19.9751226 C16.230417,20.1162947 15.1206963,19.6554964 14.5754983,18.7128361 C13.8085709,17.3868005 14.4431741,15.5877669 15.9929242,14.6945821 C16.152076,14.6028563 16.3336328,14.5148183 16.5251932,14.4263496 L16.9977953,14.2110889 C17.4369794,14.0091426 17.8765624,13.7891647 18.1844939,13.5073012 L18.279204,13.4193645 L18.3118578,13.3880809 L18.3781693,13.3221664 C18.6675215,13.0263028 18.9751251,12.5925083 18.9975137,11.8301831 L18.998814,11.7407537 L18.999186,11.7061337 L18.9989987,4.15840598 C18.998994,4.10637464 18.9949285,4.05442303 18.9868391,4.00302438 C18.9035763,3.47398763 18.4197277,3.10753566 17.8930203,3.16410526 L17.8435269,3.17065593 L9.34452813,4.5082762 C8.87502029,4.58216999 8.52485927,4.97536237 8.50126851,5.44546511 L8.5,5.49611652 L8.5,7.54413367 L17.9997742,6.05406036 L17.9997742,7.57206036 L8.5,9.06213367 L8.50002798,16.6355385 L8.50118603,17.0101232 L8.49993603,17.3652463 L8.5,18.6071429 C8.5,20.4761676 7.17147506,22.0164416 5.46034933,22.2257739 L5.38231068,22.2343689 C4.23160307,22.375541 3.12188235,21.9147427 2.57668432,20.9720825 C1.80975692,19.6460469 2.4443601,17.8470132 3.99411018,16.9538284 C4.15326202,16.8621026 4.33481883,16.7740646 4.5263792,16.6855959 L4.99898137,16.4703352 C5.43816547,16.2683889 5.87774844,16.048411 6.18567989,15.7665475 L6.2482091,15.7088653 C6.26948246,15.6890242 6.29114008,15.6685404 6.31304382,15.6473272 L6.37935529,15.5814127 C6.6687075,15.2855491 6.97631118,14.8517547 6.99869972,14.0894294 L7,14 L7,5.49611652 C7,4.28868212 7.86215186,3.25744563 9.04285337,3.03825583 L9.11132032,3.02651572 L17.6103191,1.68889545 C18.9742419,1.47423359 20.2539377,2.40589371 20.4685995,3.76981657 Z M6.99918603,17.0431337 C6.66047053,17.3148981 6.27752198,17.5285989 5.73958471,17.7803239 L5.10135041,18.0724303 L4.99058,18.1249863 L4.89496413,18.1721554 L4.8129854,18.2147128 L4.74312644,18.253434 C3.87096548,18.7560963 3.55155568,19.6615896 3.87515371,20.2210983 C4.08567475,20.5850941 4.56023488,20.8036318 5.151884,20.7504216 L5.27820321,20.736874 C6.21618485,20.6221251 6.96808834,19.7547997 6.99901055,18.6763395 L7,18.6072201 L6.99918603,17.0431337 Z M19,14.78275 C18.6591854,15.0557338 18.2763297,15.2693577 17.7383983,15.5210779 L17.5573279,15.6045145 L17.1001644,15.813184 L16.989394,15.86574 L16.8937781,15.912909 C16.8790207,15.9203647 16.8648315,15.9276282 16.8511789,15.9347157 L16.7754498,15.9752581 C16.7638171,15.9817063 16.7526579,15.9880107 16.7419404,15.9941876 C15.8697794,16.4968499 15.5503696,17.4023433 15.8739677,17.961852 C16.0844887,18.3258478 16.5590488,18.5443855 17.150698,18.4911753 L17.2770172,18.4776277 C18.2149988,18.3628788 18.9669023,17.4955534 18.9978245,16.4170932 L18.998814,16.3479738 L18.9987593,15.1007202 L19,14.78275 Z" id="path-1"></path>
    </defs>
    <g id="ic_space_music" stroke="none" stroke-width="1" fill="none" fill-rule="evenodd">
        <mask id="mask-2" fill="white">
            <use xlink:href="#path-1"></use>
        </mask>
        <use id="蒙版" fill-opacity="0.6" fill="#000000" fill-rule="nonzero" xlink:href="#path-1"></use>
    </g>
</svg>