<?xml version="1.0" encoding="UTF-8"?>
<svg width="24px" height="24px" viewBox="0 0 24 24" version="1.1" xmlns="http://www.w3.org/2000/svg" xmlns:xlink="http://www.w3.org/1999/xlink">
    <title>ic_space_theatre</title>
    <g id="ic_space_theatre" stroke="none" stroke-width="1" fill="none" fill-rule="evenodd" fill-opacity="0.6">
        <path d="M2.487468,4.09512848 C2.81675486,2.61247135 4.28562569,1.67748002 5.76828282,2.00676689 L7.67025159,2.42917968 C10.5253709,3.06327996 13.4848798,3.0629136 16.3398421,2.42810645 L18.231007,2.00760176 C18.3587074,1.97920731 18.488107,1.95999744 18.6182148,1.95004794 L18.8137838,1.94207846 L19.0096716,1.94805639 C20.5251331,2.048447 21.6722748,3.35835399 21.5718842,4.87381554 L20.9082629,14.8916097 C20.7880513,16.7013144 19.9446377,18.3867811 18.5677347,19.5689397 C15.8155421,21.9278035 13.6650578,23.1245346 12.0148057,23.1245346 C10.3652334,23.1245346 8.20885953,21.9283768 5.44331368,19.5697625 C4.06026591,18.388415 3.21221133,16.6991384 3.09123983,14.8841033 L2.42807033,4.87312837 C2.41079129,4.61229009 2.43079178,4.35032052 2.487468,4.09512848 Z M5.4430683,3.47108773 C4.76913324,3.32141188 4.10146468,3.74640794 3.95178883,4.42034299 C3.92602692,4.53633938 3.91693579,4.65541645 3.92478989,4.77397931 L4.58793932,14.7846522 C4.68201997,16.196221 5.34169261,17.5102514 6.41710871,18.4288317 C8.92846275,20.5706567 10.8283416,21.6245346 12.0148057,21.6245346 C13.2005902,21.6245346 15.0933421,20.57123 17.5911006,18.4304383 C18.6619357,17.5110582 19.318054,16.1998799 19.4115523,14.7923252 L20.0751646,4.77466648 C20.1207967,4.08582032 19.5993687,3.49040805 18.9105225,3.44477596 C18.7918562,3.436915 18.6726753,3.44602889 18.5565841,3.47184203 L16.6654191,3.89234673 C13.5961463,4.57480631 10.4144788,4.57520018 7.34503707,3.89350052 Z M16.0250778,14.8746828 C16.31104,15.1743467 16.2999326,15.6490905 16.0002686,15.9350527 C14.981908,16.9068502 13.5272614,17.4683443 11.9732225,17.4683443 C10.4874913,17.4683443 9.09149396,16.9554025 8.07958292,16.0577866 C7.76971309,15.7829165 7.7413402,15.3088912 8.01621029,14.9990213 C8.29108038,14.6891515 8.76510574,14.6607786 9.07497556,14.9356487 C9.80807442,15.5859442 10.8487959,15.9683443 11.9732225,15.9683443 C13.1481412,15.9683443 14.2304249,15.5505824 14.9647078,14.8498736 C15.2643717,14.5639114 15.7391155,14.5750188 16.0250778,14.8746828 Z M8.0120393,7.25 C8.95495605,7.25 9.84202633,7.57963027 10.4654744,8.15659894 C10.7694805,8.43794069 10.7878535,8.91245886 10.5065118,9.21646494 C10.22517,9.52047101 9.75065187,9.53884407 9.4466458,9.25750231 C9.10764506,8.94377482 8.58617631,8.75 8.0120393,8.75 C7.39164233,8.75 6.83479309,8.97649114 6.50406652,9.33044571 C6.22127247,9.63310129 5.74667177,9.64920225 5.44401619,9.3664082 C5.14136061,9.08361415 5.12525965,8.60901345 5.4080537,8.30635787 C6.03154763,7.63907395 6.98812162,7.25 8.0120393,7.25 Z M16.0120393,7.25 C16.954956,7.25 17.8420263,7.57963027 18.4654744,8.15659894 C18.7694805,8.43794069 18.7878535,8.91245886 18.5065118,9.21646494 C18.22517,9.52047101 17.7506519,9.53884407 17.4466458,9.25750231 C17.1076451,8.94377482 16.5861763,8.75 16.0120393,8.75 C15.3916423,8.75 14.8347931,8.97649114 14.5040665,9.33044571 C14.2212725,9.63310129 13.7466718,9.64920225 13.4440162,9.3664082 C13.1413606,9.08361415 13.1252597,8.60901345 13.4080537,8.30635787 C14.0315476,7.63907395 14.9881216,7.25 16.0120393,7.25 Z" id="形状结合" fill="#000000" fill-rule="nonzero"></path>
    </g>
</svg>