<?xml version="1.0" encoding="UTF-8"?>
<svg width="24px" height="24px" viewBox="0 0 24 24" version="1.1" xmlns="http://www.w3.org/2000/svg" xmlns:xlink="http://www.w3.org/1999/xlink">
    <title>ic_space_movie</title>
    <g id="ic_space_movie" stroke="none" stroke-width="1" fill="none" fill-rule="evenodd" fill-opacity="0.6">
        <path d="M12.5412541,2 C18.3131051,2 22.9922992,6.477 22.9922992,12 C22.9922992,17.4582858 18.4217031,21.8953364 12.7429171,21.9981754 L12.7153947,21.99975 L12.6135961,21.9997654 C12.5895014,21.9999217 12.5653873,22 12.5412541,22 L12.469209,21.999 L3.48268014,21.99975 C3.08585839,21.99975 2.75790961,21.7175961 2.70600719,21.3515206 L2.69885176,21.24975 C2.69885176,20.8355364 3.04978368,20.49975 3.48268014,20.49975 L7.03310352,20.4999453 C4.065823,18.7357082 2.09020902,15.5885657 2.09020902,12 C2.09020902,6.477 6.76940319,2 12.5412541,2 Z M12.5412541,3.5 C7.64284928,3.5 3.65786579,7.313 3.65786579,12 C3.65786579,16.6653668 7.60656943,20.4651861 12.4742649,20.4997621 L12.608209,20.499 L12.8075155,20.4962359 C17.5832501,20.3610476 21.4246425,16.6015364 21.4246425,12 C21.4246425,7.313 17.439659,3.5 12.5412541,3.5 Z M12.5412541,14 C13.9842822,14 15.1540154,15.11925 15.1540154,16.5 C15.1540154,17.8805 13.9842822,19 12.5412541,19 C11.0982261,19 9.92849285,17.8805 9.92849285,16.5 C9.92849285,15.11925 11.0982261,14 12.5412541,14 Z M12.5412541,15.5 C11.964879,15.5 11.4961496,15.9485 11.4961496,16.5 C11.4961496,17.05125 11.964879,17.5 12.5412541,17.5 C13.1176293,17.5 13.5863586,17.05125 13.5863586,16.5 C13.5863586,15.9485 13.1176293,15.5 12.5412541,15.5 Z M16.9749271,9.5 C18.4176939,9.5 19.5876884,10.61925 19.5876884,12 C19.5876884,13.3805 18.4176939,14.5 16.9749271,14.5 C15.5318991,14.5 14.3621658,13.3805 14.3621658,12 C14.3621658,10.61925 15.5318991,9.5 16.9749271,9.5 Z M7.83828383,9.5 C9.28131188,9.5 10.4510451,10.61925 10.4510451,12 C10.4510451,13.3805 9.28131188,14.5 7.83828383,14.5 C6.39525578,14.5 5.22552255,13.3805 5.22552255,12 C5.22552255,10.61925 6.39525578,9.5 7.83828383,9.5 Z M16.9749271,11 C16.398552,11 15.9298226,11.4485 15.9298226,12 C15.9298226,12.55125 16.398552,13 16.9749271,13 C17.5513023,13 18.0200316,12.55125 18.0200316,12 C18.0200316,11.4485 17.5513023,11 16.9749271,11 Z M7.83828383,11 C7.26190869,11 6.79317932,11.4485 6.79317932,12 C6.79317932,12.55125 7.26190869,13 7.83828383,13 C8.41465897,13 8.88338834,12.55125 8.88338834,12 C8.88338834,11.4485 8.41465897,11 7.83828383,11 Z M12.5412541,5 C13.9842822,5 15.1540154,6.11925 15.1540154,7.5 C15.1540154,8.8805 13.9842822,10 12.5412541,10 C11.0982261,10 9.92849285,8.8805 9.92849285,7.5 C9.92849285,6.11925 11.0982261,5 12.5412541,5 Z M12.5412541,6.5 C11.964879,6.5 11.4961496,6.9485 11.4961496,7.5 C11.4961496,8.05125 11.964879,8.5 12.5412541,8.5 C13.1176293,8.5 13.5863586,8.05125 13.5863586,7.5 C13.5863586,6.9485 13.1176293,6.5 12.5412541,6.5 Z" id="形状结合" fill="#000000" fill-rule="nonzero"></path>
    </g>
</svg>