<?xml version="1.0" encoding="UTF-8"?>
<svg width="28px" height="28px" viewBox="0 0 28 28" version="1.1" xmlns="http://www.w3.org/2000/svg" xmlns:xlink="http://www.w3.org/1999/xlink">
    <title>ic_weather_night</title>
    <defs>
        <linearGradient x1="50%" y1="0%" x2="50%" y2="100%" id="linearGradient-1">
            <stop stop-color="#FFE466" offset="0%"></stop>
            <stop stop-color="#FFC322" offset="100%"></stop>
        </linearGradient>
    </defs>
    <g id="ic_weather_night" stroke="none" stroke-width="1" fill="none" fill-rule="evenodd">
        <path d="M19.8104765,18.7167806 C16.3313927,18.4351486 13.1683301,16.5876124 11.2121454,13.6945191 C9.25596065,10.8014258 8.71832945,7.17583238 9.75067224,3.83886451 C9.80376917,3.64719231 9.73771223,3.44228817 9.58269649,3.31781514 C9.42768075,3.19334211 9.21349057,3.17321615 9.03803372,3.26663697 C4.81254479,5.66415569 2.54749743,10.4598352 3.37845358,15.2494029 C4.20940973,20.0389707 7.9572135,23.7897859 12.7429358,24.6214097 C17.5286582,25.4530336 22.3204873,23.1861662 24.7160811,18.957282 C24.8265192,18.7804547 24.8150732,18.553467 24.6874084,18.3886655 C24.5597435,18.223864 24.3429436,18.1562111 24.144313,18.2191914 C22.744516,18.6596161 21.2735665,18.8285031 19.8104765,18.7167806 L19.8104765,18.7167806 Z" id="路径" fill="url(#linearGradient-1)" transform="translate(14.000000, 14.000000) rotate(-360.000000) translate(-14.000000, -14.000000) "></path>
    </g>
</svg>