<?xml version="1.0" encoding="UTF-8"?>
<svg width="28px" height="28px" viewBox="0 0 28 28" version="1.1" xmlns="http://www.w3.org/2000/svg" xmlns:xlink="http://www.w3.org/1999/xlink">
    <title>ic_weather_lightrain</title>
    <defs>
        <linearGradient x1="24.7626828%" y1="25.2018836%" x2="63.9563237%" y2="69.0795223%" id="linearGradient-1">
            <stop stop-color="#FFFFFF" offset="0%"></stop>
            <stop stop-color="#D8E5EA" offset="100%"></stop>
        </linearGradient>
        <linearGradient x1="68.0853799%" y1="4.96181663%" x2="32.6589357%" y2="82.6925081%" id="linearGradient-2">
            <stop stop-color="#FFFFFF" stop-opacity="0.738117351" offset="0%"></stop>
            <stop stop-color="#FFFFFF" stop-opacity="0" offset="100%"></stop>
        </linearGradient>
    </defs>
    <g id="ic_weather_lightrain" stroke="none" stroke-width="1" fill="none" fill-rule="evenodd">
        <line x1="12.6485535" y1="22.4583333" x2="11.3333333" y2="24.7300773" id="直线-16" stroke="#FFFFFF" stroke-width="1.75" stroke-linecap="round" fill-rule="nonzero"></line>
        <line x1="16.7318869" y1="22.4583333" x2="15.4166667" y2="24.7300773" id="直线-16-copy" stroke="#FFFFFF" stroke-width="1.75" stroke-linecap="round" fill-rule="nonzero"></line>
        <path d="M10.3055556,19.8333333 C6.21116202,19.7540169 2.91666667,16.4545981 2.91666667,12.3958333 C2.91666667,8.28821551 6.29094727,4.95833333 10.4533333,4.95833333 C13.4547001,4.95833333 16.0462992,6.68967308 17.2585406,9.19552043 C17.9362043,8.90878212 18.683201,8.75 19.4677778,8.75 C22.5691635,8.75 25.0833333,11.2310887 25.0833333,14.2916667 C25.0833333,17.3522447 22.5691635,19.8333333 19.4677778,19.8333333 L19.4677778,19.8333333 L19.4677778,19.8333333 L10.3055556,19.8333333 Z" id="合并形状" fill="url(#linearGradient-1)"></path>
        <ellipse id="椭圆形-copy" fill="url(#linearGradient-2)" cx="19.4677778" cy="14.2916667" rx="5.61555556" ry="5.54166667"></ellipse>
    </g>
</svg>