<?xml version="1.0" encoding="UTF-8"?>
<svg viewBox="0 0 1024 1024" version="1.1" xmlns="http://www.w3.org/2000/svg" width="32" height="32">
    <path d="M512 512m-280 0a280 280 0 1 0 560 0 280 280 0 1 0-560 0Z" fill="#FFCC00" p-id="5940"></path><path d="M492 40h40v104h-40zM164.328 192.68l28.288-28.288 73.536 73.536-28.28 28.288zM40 492h104v40H40zM163.256 831.48l73.544-73.536 28.28 28.288-73.536 73.536zM492 880h40v104h-40zM758.744 785.944l28.28-28.28 73.536 73.536-28.28 28.288zM880 492h104v40h-104zM757.992 237.872l73.536-73.536 28.28 28.28-73.536 73.544z" fill="#FFCC00"></path>
</svg>