<?xml version="1.0" encoding="UTF-8"?>
<svg width="28px" height="28px" viewBox="0 0 28 28" version="1.1" xmlns="http://www.w3.org/2000/svg" xmlns:xlink="http://www.w3.org/1999/xlink">
    <title>ic_weather_cloudy</title>
    <defs>
        <linearGradient x1="77.6901819%" y1="6.67814371%" x2="41.4269068%" y2="75.6145508%" id="linearGradient-1">
            <stop stop-color="#FFE466" offset="0%"></stop>
            <stop stop-color="#FFC322" offset="100%"></stop>
        </linearGradient>
        <linearGradient x1="71.4558049%" y1="0%" x2="47.5370103%" y2="57.0520036%" id="linearGradient-2">
            <stop stop-color="#FFDF5C" offset="0%"></stop>
            <stop stop-color="#FFC323" offset="100%"></stop>
        </linearGradient>
        <linearGradient x1="24.7626828%" y1="25.1583209%" x2="63.9563237%" y2="69.1130392%" id="linearGradient-3">
            <stop stop-color="#FFFFFF" offset="0%"></stop>
            <stop stop-color="#D8E5EA" offset="100%"></stop>
        </linearGradient>
        <linearGradient x1="68.0853799%" y1="4.88269818%" x2="32.6589357%" y2="82.7499389%" id="linearGradient-4">
            <stop stop-color="#FFFFFF" offset="0%"></stop>
            <stop stop-color="#D8E5EA" offset="100%"></stop>
        </linearGradient>
    </defs>
    <g id="ic_weather_cloudy" stroke="none" stroke-width="1" fill="none" fill-rule="evenodd">
        <path d="M12.3972709,11.5522748 C12.3972709,14.6953587 14.9452438,17.2433317 18.0883278,17.2433317 C21.2314117,17.2433317 23.7793847,14.6953587 23.7793847,11.5522748 C23.7793847,8.40919081 21.2314117,5.86121784 18.0883278,5.86121784 C14.9452438,5.86121784 12.3972709,8.40919081 12.3972709,11.5522748 L12.3972709,11.5522748 Z" id="Path-Copy" fill="url(#linearGradient-1)" transform="translate(18.088328, 11.552275) rotate(5.000000) translate(-18.088328, -11.552275) "></path>
        <path d="M18.0831266,18.5169307 C18.4359752,18.5169307 18.7247991,18.7910527 18.7482552,19.1379533 L18.7497932,19.1835974 L18.7497932,21.0047356 C18.7497932,21.3729254 18.4513164,21.6714023 18.0831266,21.6714023 C17.730278,21.6714023 17.441454,21.3972803 17.4179979,21.0503797 L17.4164599,21.0047356 L17.4164599,19.1835974 C17.4164599,18.8154076 17.7149367,18.5169307 18.0831266,18.5169307 Z M13.242607,16.5119219 C13.4905589,16.7598738 13.5023661,17.1545472 13.2780287,17.4164726 L13.242607,17.4547309 L11.9548678,18.7424701 C11.6945183,19.0028196 11.2724083,19.0028196 11.0120588,18.7424701 C10.7641068,18.4945182 10.7522996,18.0998447 10.9766371,17.8379193 L11.0120588,17.799661 L12.2997979,16.5119219 C12.5601475,16.2515723 12.9822575,16.2515723 13.242607,16.5119219 Z M27.4164599,11.0047356 C27.7846497,11.0047356 28.0831266,11.3032124 28.0831266,11.6714023 C28.0831266,12.0242509 27.8090046,12.3130748 27.462104,12.3365309 L27.4164599,12.3380689 L25.5953217,12.3380689 C25.2271319,12.3380689 24.928655,12.0395921 24.928655,11.6714023 C24.928655,11.3185537 25.202777,11.0297297 25.5496776,11.0062736 L25.5953217,11.0047356 L27.4164599,11.0047356 Z M25.1541944,4.60033446 C25.4021463,4.8482864 25.4139536,5.24295983 25.1896161,5.50488524 L25.1541944,5.54314351 L23.8664552,6.83088268 C23.6061057,7.09123221 23.1839957,7.09123221 22.9236462,6.83088268 C22.6756942,6.58293075 22.663887,6.18825732 22.8882245,5.92633191 L22.9236462,5.88807364 L24.2113853,4.60033446 C24.4717349,4.33998494 24.8938449,4.33998494 25.1541944,4.60033446 Z M11.9166095,4.56491276 L11.9548678,4.60033446 L13.242607,5.88807364 C13.5029565,6.14842317 13.5029565,6.57053316 13.242607,6.83088268 C12.994655,7.07883462 12.5999816,7.09064185 12.3380562,6.86630439 L12.2997979,6.83088268 L11.0120588,5.54314351 C10.7517092,5.28279398 10.7517092,4.86068399 11.0120588,4.60033446 C11.2476131,4.36478013 11.6155836,4.34234638 11.87636,4.53303323 L11.9166095,4.56491276 Z M18.0831266,1.67140228 C18.4359752,1.67140228 18.7247991,1.94552423 18.7482552,2.29242485 L18.7497932,2.33806894 L18.7497932,4.15920715 C18.7497932,4.52739699 18.4513164,4.82587382 18.0831266,4.82587382 C17.730278,4.82587382 17.441454,4.55175187 17.4179979,4.20485125 L17.4164599,4.15920715 L17.4164599,2.33806894 C17.4164599,1.96987911 17.7149367,1.67140228 18.0831266,1.67140228 Z" id="Combined-Shape" fill="url(#linearGradient-2)" fill-rule="nonzero" transform="translate(19.449962, 11.671402) rotate(5.000000) translate(-19.449962, -11.671402) "></path>
        <path d="M10.3055556,23.0416667 C6.69591875,22.9715756 3.79166667,20.0603646 3.79166667,16.4791667 C3.79166667,12.854798 6.76636141,9.91666667 10.4358333,9.91666667 C13.081937,9.91666667 15.3667538,11.4445063 16.4353569,13.6557669 C17.0323176,13.4024115 17.6909763,13.2622549 18.3827778,13.2622549 C21.1168941,13.2622549 23.3333333,15.4514508 23.3333333,18.1519608 C23.3333333,20.8524708 21.1168941,23.0416667 18.3827778,23.0416667 L18.3827778,23.0416667 L18.3827778,23.0416667 L10.3055556,23.0416667 Z" id="合并形状" fill="url(#linearGradient-3)"></path>
        <ellipse id="椭圆形-copy" fill="url(#linearGradient-4)" cx="18.3827778" cy="18.1519608" rx="4.95055556" ry="4.88970588"></ellipse>
    </g>
</svg>