<?xml version="1.0" encoding="UTF-8"?>
<svg width="24px" height="24px" viewBox="0 0 24 24" version="1.1" xmlns="http://www.w3.org/2000/svg" xmlns:xlink="http://www.w3.org/1999/xlink">
    <title>icon_humidity</title>
    <g id="icon_humidity" stroke="none" stroke-width="1" fill="none" fill-rule="evenodd">
        <path d="M11.5400289,3.26521127 C10.5816645,4.32225352 9.62330004,5.45690141 8.72990945,6.62098592 C7.75530154,7.89211268 6.92147032,9.11774648 6.26902447,10.2711268 C5.29712379,11.9864789 4.78004015,13.4556338 4.78004015,14.5635211 C4.78004015,18.7890141 8.08287809,21.73 12.0300401,21.73 C15.9772022,21.73 19.2800401,18.786338 19.2800401,14.5608451 C19.2800401,13.4529577 18.7629565,11.9838028 17.7910558,10.2684507 C17.13861,9.11774648 16.3047788,7.88943662 15.3301708,6.61830986 C14.4367803,5.45422535 13.4784158,4.31957746 12.5200514,3.26253521 C12.349495,3.07521127 12.1870603,2.89859155 12.0327474,2.73 C11.87302,2.90126761 11.7105853,3.07788732 11.5400289,3.26521127 Z M3.25,14.5325 C3.25,13.0825 3.83467164,11.4125 4.88858618,9.535 C5.54351878,8.37 6.36657585,7.1475 7.3226269,5.89 C8.18583309,4.755 9.1117723,3.6525 10.0352022,2.6275 C10.3589045,2.2675 10.6600229,1.945 10.9310295,1.66 C11.0941354,1.4875 11.2120734,1.365 11.2773157,1.3 C11.6737884,0.9 12.3237023,0.9 12.7226843,1.3 C12.7879266,1.365 12.9058646,1.4875 13.0689705,1.66 C13.3399771,1.945 13.6410955,2.27 13.9647978,2.6275 C14.8882277,3.6525 15.8116576,4.755 16.6773731,5.89 C17.6334241,7.145 18.4564812,8.3675 19.1114138,9.535 C20.1653284,11.4125 20.75,13.0825 20.75,14.5325 C20.75,19.645 16.7350875,23.25 12,23.25 C7.26491253,23.25 3.25,19.6475 3.25,14.5325 Z" id="形状" fill="#FFFFFF" fill-rule="nonzero"></path>
        <path d="M11.1755725,16.851145 C11.6295165,16.851145 12,17.2195929 12,17.6755725 C12,18.1295165 11.6315522,18.5 11.1755725,18.5 C9.62035623,18.5 8,17.3763359 8,15.3244275 C8,14.8704835 8.36844784,14.5 8.82442748,14.5 C9.28040712,14.5 9.64885496,14.8684478 9.64885496,15.3244275 C9.64681934,16.3096692 10.4284987,16.851145 11.1755725,16.851145 Z" id="路径" fill="#FFFFFF" fill-rule="nonzero"></path>
    </g>
</svg>