<?xml version="1.0" encoding="UTF-8"?>
<svg width="24px" height="24px" viewBox="0 0 24 24" version="1.1" xmlns="http://www.w3.org/2000/svg" xmlns:xlink="http://www.w3.org/1999/xlink">
    <title>icon_add</title>
    <defs>
        <path d="M14.1244226,12.6974916 L18.2275462,16.8004016 L18.2652969,16.8402449 C18.6176366,17.2328673 18.6050531,17.8371084 18.2275462,18.2146152 C17.8670623,18.5750992 17.2998312,18.6028287 16.90754,18.2978038 L16.8133327,18.2146152 L12.7104226,14.1114916 L14.1244226,12.6974916 Z M7.21252939,18.196328 C6.8220051,18.5868522 6.18884012,18.5868522 5.79831583,18.196328 C5.42080902,17.8188211 5.40822546,17.2145801 5.76056515,16.8219577 L5.79831583,16.7821144 L10.5884226,11.9904916 L5.81660308,7.2178856 L5.7788524,7.17804235 C5.4265127,6.78541992 5.43909626,6.18117886 5.81660308,5.80367204 C6.17708704,5.44318808 6.74431809,5.41545855 7.1366093,5.72048344 L7.23081664,5.80367204 L12.0034226,10.5754916 L16.7950454,5.7853848 C17.1855697,5.39486051 17.8187347,5.39486051 18.209259,5.7853848 C18.5867658,6.16289161 18.5993494,6.76713267 18.2470097,7.1597551 L18.209259,7.19959836 L7.21252939,18.196328 Z" id="path-1"></path>
    </defs>
    <g id="icon_add" stroke="none" stroke-width="1" fill="none" fill-rule="evenodd">
<!--        <mask id="mask-2" fill="white">-->
<!--            <use xlink:href="#path-1"></use>-->
<!--        </mask>-->
        <use id="形状结合" fill="#000000" fill-rule="nonzero" transform="translate(12.012931, 12.000000) rotate(-45.000000) translate(-12.012931, -12.000000) " xlink:href="#path-1"></use>
    </g>
</svg>