<?xml version="1.0" encoding="UTF-8"?>
<svg width="16px" height="16px" viewBox="0 0 16 16" version="1.1" xmlns="http://www.w3.org/2000/svg" xmlns:xlink="http://www.w3.org/1999/xlink">
    <title>icon_Chinaweather</title>
    <g id="icon_Chinaweather" stroke="none" stroke-width="1" fill="none" fill-rule="evenodd">
        <g id="Fill-1" transform="translate(4.758748, 2.087577)">
            <mask id="mask-2" fill="white">
                <use xlink:href="#path-1"></use>
            </mask>
            <path d="M7.2784324,2.03411534 C7.2784324,2.03411534 5.05740492,1.20090899 3.35991388,1.82645397 C1.3388864,2.57119471 0.0048362216,3.96592487 0.972817106,6.46100423 C-0.582141078,4.73476085 -0.224315511,2.03900423 1.69838461,0.770803175 C3.62251842,-0.496932275 6.2570465,0.0990465608 6.62646107,0.458612698 C6.98667613,0.810729101 7.2784324,2.03411534 7.2784324,2.03411534" fill="#FFFFFF" mask="url(#mask-2)"></path>
        </g>
        <g id="Fill-3" transform="translate(6.279640, 4.192104)">
            <mask id="mask-4" fill="white">
                <use xlink:href="#path-3"></use>
            </mask>
            <path d="M6.49927273,6.36010907 C6.49927273,6.36010907 6.56957576,4.00929425 5.37781818,2.64135351 C3.95927273,1.01255351 2.13236364,0.244672032 0,1.99447944 C1.17587879,-0.0401279676 3.95478788,-0.623594634 5.85672727,0.736405366 C7.75806061,2.09581277 8.06133333,4.75157574 7.832,5.21770907 C7.60727273,5.67270166 6.49927273,6.36010907 6.49927273,6.36010907" fill="#FFFFFF" mask="url(#mask-4)"></path>
        </g>
        <g id="Fill-5" transform="translate(6.575354, 5.699129)">
            <mask id="mask-6" fill="white">
                <use xlink:href="#path-5"></use>
            </mask>
            <path d="M0,7.29706667 C0,7.29706667 2.30922616,6.70352593 3.31142002,5.20722963 C4.50633885,3.42411852 4.74733491,1.50198519 2.45320095,0 C4.76134909,0.528118519 6.09952403,2.96154074 5.3008353,5.11928889 C4.50334437,7.27715556 1.99971631,8.3058963 1.48191017,8.2221037 C0.975842396,8.13973333 0,7.29706667 0,7.29706667" fill="#FFFFFF" mask="url(#mask-6)"></path>
        </g>
        <g id="Fill-5" transform="translate(6.575354, 5.699129)">
            <path d="M0,7.29706667 C0,7.29706667 2.30922616,6.70352593 3.31142002,5.20722963 C4.50633885,3.42411852 4.74733491,1.50198519 2.45320095,0 C4.76134909,0.528118519 6.09952403,2.96154074 5.3008353,5.11928889 C4.50334437,7.27715556 1.99971631,8.3058963 1.48191017,8.2221037 C0.975842396,8.13973333 0,7.29706667 0,7.29706667" fill="#FFFFFF" mask="url(#mask-6)"></path>
        </g>
        <path d="M2.49391839,8.07690401 C2.49391839,8.07690401 3.82149919,9.96133706 5.5964301,10.3925692 C7.70838084,10.9070855 9.64621471,10.5245023 10.3496758,8 C10.5917995,10.232381 8.67639343,12.1901861 6.32991547,12.1474617 C3.98307578,12.1049651 2.17088579,10.1824788 2.08418909,9.69279966 C1.99773356,9.21405796 2.49391839,8.07690401 2.49391839,8.07690401" id="Fill-7" fill="#FFFFFF"></path>
        <path d="M5.88287342,2.43601509 C5.44686549,2.84678912 4.37840908,4.24987312 4.34416824,6.05155918 C4.30317402,8.18070635 5.43549137,9.89506158 8,9.80749439 C5.8140363,10.6817482 3.3606623,9.30986222 2.79420742,7.08936628 C2.22834495,4.86946121 3.70105654,2.70214372 4.17201619,2.48623919 C4.63160173,2.27411624 5.63027317,2.41379832 5.88287342,2.43601509" id="Fill-9" fill="#FFFFFF"></path>
    </g>
</svg>