<?xml version="1.0" encoding="UTF-8"?>
<svg width="24px" height="24px" viewBox="0 0 24 24" version="1.1" xmlns="http://www.w3.org/2000/svg" xmlns:xlink="http://www.w3.org/1999/xlink">
    <title>icon_UV</title>
    <g id="icon_UV" stroke="none" stroke-width="1" fill="none" fill-rule="evenodd">
        <path d="M11.2364826,14.8613297 C11.2364826,17.3989736 9.16882555,19.4561404 6.6182413,19.4561404 C4.06765706,19.4561404 2,17.3989736 2,14.8613297 L2,5.99990928 C2,5.45612845 2.19306937,5.015307 2.73962314,5.015307 C3.28617691,5.015307 3.72924628,5.45612845 3.72924628,5.99990928 L3.72924628,15.1113297 C3.72915789,16.0494271 4.48212817,16.9163024 5.29867237,17.3853764 C6.11521657,17.8544505 7.12126604,17.8544505 7.93781024,17.3853764 C8.75435444,16.9163024 9.50732472,16.0494271 9.50723632,15.1113297 L9.50723632,5.99990928 C9.50723632,5.45612845 9.9503057,5.015307 10.4968595,5.015307 C11.0434132,5.015307 11.2364826,5.45612845 11.2364826,5.99990928 L11.2364826,14.8613297 Z M13,4.74454138 C13.5254203,4.59463914 14.1441181,4.89689571 14.2947847,5.41965034 L17.1263896,14.7118503 C17.1689008,14.8496797 17.2968414,14.9437679 17.4417495,14.9437679 C17.5866577,14.9437679 17.7145982,14.8496797 17.7571094,14.7118503 L20.6689831,5.41965034 C20.8196497,4.89689573 21.3704183,4.59463914 21.8958386,4.74454138 C22.421259,4.89444362 22.3620698,5.45286779 22.2114032,5.97562241 L18.3927773,18.5693419 C18.2665871,19.0093317 17.852379,19.3048501 17.3930373,19.2826103 C16.9336956,19.2603706 16.550285,18.9262343 16.4676305,18.4761329 L12.6720959,5.96249438 C12.5214292,5.43973975 12.4745797,4.89444362 13,4.74454138 Z" id="形状" fill="#FFFFFF" fill-rule="nonzero"></path>
    </g>
</svg>