<?xml version="1.0" encoding="UTF-8"?>
<svg width="24px" height="24px" viewBox="0 0 24 24" version="1.1" xmlns="http://www.w3.org/2000/svg" xmlns:xlink="http://www.w3.org/1999/xlink">
    <title>icon_breeze</title>
    <g id="icon_breeze" stroke="none" stroke-width="1" fill="none" fill-rule="evenodd">
        <path d="M2.48199302,9.97802704 L11.2675834,9.97802704 C12.8858463,9.97802704 14.1963993,8.67548367 14.1963993,7.06901352 C14.1963993,5.46254337 12.8858463,4.16 11.2675834,4.16 C9.65017766,4.16 8.33962472,5.46169202 8.33962472,7.06901352 L9.80360408,7.06901352 C9.80360408,6.26535278 10.4601663,5.61493242 11.2675834,5.61493242 C12.0750006,5.61493242 12.7315628,6.26535276 12.7315628,7.06901352 C12.7315628,7.87182294 12.0758578,8.52309462 11.2675834,8.52309462 L2.48199302,8.5230946 C2.07742729,8.5230946 1.75000167,8.8491561 1.75000167,9.25013514 C1.74914621,9.65281686 2.07657018,9.97802704 2.48199302,9.97802704 Z M18.5891945,14.341973 L2.48199302,14.341973 C2.07742729,14.341973 1.75000335,14.6663318 1.75000335,15.0690135 C1.75000335,15.4716952 2.07742731,15.7960541 2.48199302,15.7960541 L18.5891945,15.7960541 C19.3974688,15.7960541 20.054031,16.4481771 20.054031,17.2509865 C20.054031,18.0546472 19.3974688,18.7050676 18.5891945,18.7050676 C17.7809202,18.7050676 17.124358,18.0546472 17.124358,17.2509865 L15.6612358,17.2509865 C15.6612358,18.8574566 16.9717887,20.16 18.5891945,20.16 C20.2066002,20.16 21.5171532,18.8574566 21.5171532,17.2509865 C21.5171532,15.6445163 20.2057431,14.341973 18.5891945,14.341973 Z M2.48199302,12.8870406 L18.5891945,12.8870406 C20.611166,12.8870406 22.2500017,11.2584357 22.2500017,9.2509865 C22.2500017,7.24268597 20.611166,5.61493244 18.5891945,5.61493244 C16.567223,5.61493244 14.928389,7.24268599 14.928389,9.2509865 C14.928389,9.50127915 14.9626742,9.74305843 15.0132449,9.97802704 L16.527795,9.97802704 C16.4463676,9.74901779 16.3940826,9.50723848 16.3940826,9.2509865 C16.3940826,8.04634673 17.3763544,7.06986486 18.5900516,7.06986486 C19.8020345,7.06986486 20.7860207,8.04634673 20.7860207,9.2509865 C20.7860207,10.3917761 19.9006046,11.3180292 18.7769061,11.4142301 C18.7451923,11.4184868 18.716907,11.4329595 18.6834789,11.4329595 L2.48199302,11.4329595 C2.07742729,11.4329595 1.75000167,11.7581696 1.75000167,12.16 C1.74914621,12.5618304 2.07657018,12.8870406 2.48199302,12.8870406 Z" id="形状" fill="#FFFFFF" fill-rule="nonzero"></path>
    </g>
</svg>