<?xml version="1.0" encoding="UTF-8"?>
<svg width="24px" height="24px" viewBox="0 0 24 24" version="1.1" xmlns="http://www.w3.org/2000/svg" xmlns:xlink="http://www.w3.org/1999/xlink">
    <title>icon_southerly</title>
    <g id="icon_southerly" stroke="none" stroke-width="1" fill="none" fill-rule="evenodd">
        <path d="M12,23 C5.928,23 1,18.072 1,12 C1,5.928 5.928,1 12,1 C18.072,1 23,5.928 23,12 C23,18.072 18.072,23 12,23 Z M12,2.32 C6.676,2.32 2.32,6.676 2.32,12 C2.32,17.324 6.676,21.68 12,21.68 C17.324,21.68 21.68,17.324 21.68,12 C21.68,6.676 17.324,2.32 12,2.32 Z" id="形状" fill="#FFFFFF" fill-rule="nonzero"></path>
        <path d="M7.75,17.5 L8.27763819,9.45652174 L16.5,6.5 L15.5326633,14.673913 L7.75,17.5 L7.75,17.5 Z M9.50879397,10.4130435 L9.15703518,15.5869565 L14.3454774,13.7608696 L14.9610553,8.45652174 L9.50879397,10.4130435 L9.50879397,10.4130435 Z" id="形状" fill="#FFFFFF" fill-rule="nonzero"></path>
        <path d="M11.25,12.125 C11.25,12.6082492 11.6417508,13 12.125,13 C12.6082492,13 13,12.6082492 13,12.125 C13,11.6417508 12.6082492,11.25 12.125,11.25 C11.6417508,11.25 11.25,11.6417508 11.25,12.125 Z" id="路径" fill="#FFFFFF" fill-rule="nonzero"></path>
    </g>
</svg>