<?xml version="1.0" encoding="UTF-8"?>
<svg width="24px" height="24px" viewBox="0 0 24 24" version="1.1" xmlns="http://www.w3.org/2000/svg" xmlns:xlink="http://www.w3.org/1999/xlink">
    <title>icon_temperature</title>
    <g id="icon_temperature" stroke="none" stroke-width="1" fill="none" fill-rule="evenodd">
        <path d="M12.0000075,15 C11.033124,15 10.25,15.7837724 10.25,16.7499923 C10.25,17.7168759 11.033124,18.5 12.0000075,18.5 C12.9662273,18.5 13.75,17.7168759 13.75,16.7499923 C13.7506634,15.7837724 12.9662273,15 12.0000075,15 L12.0000075,15 Z M16.2186371,4.91669278 C16.2186371,2.61574942 14.331529,0.75 12.0000112,0.75 C9.66943004,0.75 7.78136291,2.61574942 7.78136291,4.91669278 L7.78136291,11.3843509 C6.23970127,12.6053172 5.25,14.4785787 5.25,16.5830845 C5.25,20.2647745 8.272433,23.25 12.0000112,23.25 C15.7275893,23.25 18.75,20.2647745 18.75,16.5830845 C18.75,14.4786007 17.7602987,12.6053172 16.2186371,11.3834037 L16.2186371,4.91669278 Z M12.000012,21.75 C8.96227121,21.75 6.5,19.4452206 6.5,16.6017799 C6.5,14.7019446 7.6115928,13.0617784 9.24688884,12.1685356 L9.24688884,4.57700508 C9.24688884,3.15384288 10.479577,2 12.000012,2 C13.5204227,2 14.7520677,3.40286651 14.7520677,4.82700508 L12.9180512,4.82700508 C12.4119349,4.82700508 12,5.10648385 12,5.58120427 C12,6.0559247 12.4108918,6.29469058 12.9180512,6.29469058 L14.7520677,6.29469058 L14.7520677,8.26237608 L12.9180512,8.26237608 C12.4119349,8.26237608 12.000012,8.54754814 12.000012,9.02226856 C12.000012,9.49601262 12.4108918,9.73006158 12.9180512,9.73006158 L14.7520677,9.73006158 L14.7520677,12.1675819 C16.3884069,13.0598483 17.5,14.7009909 17.5,16.6008036 C17.5010428,19.4452206 15.0377285,21.75 12.000012,21.75 Z" id="形状" fill="#FFFFFF" fill-rule="nonzero"></path>
    </g>
</svg>