<?xml version="1.0" encoding="UTF-8"?>
<svg width="16px" height="16px" viewBox="0 0 16 16" version="1.1" xmlns="http://www.w3.org/2000/svg" xmlns:xlink="http://www.w3.org/1999/xlink">
    <title>icon_moon</title>
    <g id="icon_moon" stroke="none" stroke-width="1" fill="none" fill-rule="evenodd" fill-opacity="0.6">
        <path d="M16,8 C16,4.21333333 13.3866667,1.06666667 9.86666667,0.213333333 C9.84,0.213333333 9.78666667,0.186666667 9.76,0.186666667 C9.57333333,0.16 9.41333333,0.106666667 9.22666667,0.08 L9.22666667,0.08 C9.04,0.0533333333 8.85333333,0.0266666667 8.69333333,0.0266666667 L8.56,0.0266666667 C8.37333333,0.0266666667 8.18666667,0 8,0 L8,0 L8,0 C3.57333333,0 0,3.57333333 0,8 C0,12.4266667 3.57333333,16 8,16 L8,16 L8,16 C8.18666667,16 8.37333333,16 8.56,15.9733333 L8.69333333,15.9733333 C8.88,15.9466667 9.06666667,15.9466667 9.22666667,15.92 L9.22666667,15.92 C9.41333333,15.8933333 9.57333333,15.8666667 9.76,15.8133333 C9.78666667,15.8133333 9.84,15.7866667 9.86666667,15.7866667 C10.0533333,15.7333333 10.2133333,15.7066667 10.4,15.6533333 L10.4,15.6533333 L10.4,15.6533333 C13.6533333,14.6133333 16,11.5733333 16,8 Z M8,14.4 C6.05333333,12.9333333 4.8,10.6133333 4.8,8 C4.8,5.38666667 6.05333333,3.06666667 8,1.6 C11.52,1.6 14.4,4.48 14.4,8 C14.4,11.52 11.52,14.3733333 8,14.4 Z" id="Shape" fill="#FFFFFF" fill-rule="nonzero"></path>
    </g>
</svg>