<?xml version="1.0" encoding="UTF-8"?>
<svg width="24px" height="24px" viewBox="0 0 24 24" version="1.1" xmlns="http://www.w3.org/2000/svg" xmlns:xlink="http://www.w3.org/1999/xlink">
    <title>icon_subarea</title>
    <g id="icon_subarea" stroke="none" stroke-width="1" fill="none" fill-rule="evenodd">
        <rect id="矩形" fill="#FFFFFF" x="3.8" y="8" width="3" height="1.5" rx="0.75"></rect>
        <rect id="矩形备份" fill="#FFFFFF" x="3.8" y="10.5" width="3" height="1.5" rx="0.75"></rect>
        <rect id="矩形备份-2" fill="#FFFFFF" x="3.8" y="13" width="3" height="1.5" rx="0.75"></rect>
        <path d="M2.5,20 C1.67157288,20 1,19.3284271 1,18.5 L1,6.5 C1,5.67157288 1.67157288,5 2.5,5 L21.5,5 C22.3284271,5 23,5.67157288 23,6.5 L23,18.5 C23,19.3284271 22.3284271,20 21.5,20 L2.5,20 Z M8.051,6.5 L2.5,6.5 L2.5,18.5 L8.051,18.5 L8.051,6.5 Z M21.5,6.5 L9.551,6.5 L9.551,18.5 L21.5,18.5 L21.5,6.5 Z" id="形状结合" fill="#FFFFFF" fill-rule="nonzero"></path>
    </g>
</svg>