<?xml version="1.0" encoding="UTF-8"?>
<svg width="24px" height="24px" viewBox="0 0 24 24" version="1.1" xmlns="http://www.w3.org/2000/svg" xmlns:xlink="http://www.w3.org/1999/xlink">
    <title>icon_cloth</title>
    <g id="icon_cloth" stroke="none" stroke-width="1" fill="none" fill-rule="evenodd">
        <path d="M18.5,9.5 L18.5,19.3175921 C18.5,20.2467603 17.8284271,21 17,21 L7,21 C6.17157288,21 5.5,20.2467603 5.5,19.3175921 L5.5,9.5" id="路径" stroke="#FFFFFF" stroke-width="1.5" stroke-linecap="round"></path>
        <line x1="18.375" y1="18.375" x2="10.25" y2="18.375" id="直线" stroke="#FFFFFF" stroke-width="1.5" stroke-linecap="round"></line>
        <path d="M5.5,12.4138326 L2.93422547,11.6026644 C2.14761673,11.3427833 1.72061963,10.4944356 1.98050075,9.7078269 C2.00668811,9.62856293 2.03944654,9.55162335 2.0784348,9.4778096 L5.00736885,3.93266404 C5.31039648,3.35896306 5.90596056,3 6.55477375,3 L8.5,3 M15.5,3 L17.5959082,3 C18.1520338,3 18.6625173,3.30768262 18.9222553,3.79942632 L21.9208561,9.47646716 C22.3077723,10.2089884 22.027604,11.1164717 21.2950828,11.5033879 C21.2208954,11.5425735 21.1435511,11.5754657 21.0638638,11.6017184 L18.5,12.5" id="形状" stroke="#FFFFFF" stroke-width="1.5" stroke-linecap="round"></path>
        <path d="M8.5,3 C8.5,4.93299662 10.0670034,6.5 12,6.5 C13.9329966,6.5 15.5,4.93299662 15.5,3" id="路径" stroke="#FFFFFF" stroke-width="1.5"></path>
    </g>
</svg>