<?xml version="1.0" encoding="UTF-8"?>
<svg width="16px" height="16px" viewBox="0 0 16 16" version="1.1" xmlns="http://www.w3.org/2000/svg" xmlns:xlink="http://www.w3.org/1999/xlink">
    <title>icon_location</title>
    <defs>
        <path d="M8,0.59362911 C11.4036338,0.59362911 14.1666667,3.30443092 14.1666667,6.65319735 C14.1666667,7.95735545 13.7716333,9.23167521 13.0384191,10.5196036 C12.4723821,11.5138766 11.7648455,12.4360319 10.7525001,13.5796329 C10.3702097,14.0114892 9.86460171,14.5009202 9.23459616,15.0499887 L9.23459616,15.0499887 L9.05120867,15.20849 C8.46941529,15.7072803 7.61398466,15.7227746 7.00624535,15.2410586 L7.00624535,15.2410586 L6.95883582,15.2015415 L6.73823988,15.0091557 C6.15863251,14.5008449 5.73609351,14.106677 5.46319689,13.8179798 L5.46319689,13.8179798 L5.40057104,13.7507131 L5.24596071,13.5781931 C3.02730254,11.0826483 1.83333333,8.96654134 1.83333333,6.65319735 C1.83333333,3.3289497 4.47194059,0.647695363 7.82229904,0.594389731 L7.82229904,0.594389731 Z M8.21428571,5.16666667 L7.78571429,5.16666667 C7.07563389,5.16666667 6.5,5.74230056 6.5,6.45238095 L6.5,6.45238095 L6.5,6.88095238 C6.5,7.59103277 7.07563389,8.16666667 7.78571429,8.16666667 L7.78571429,8.16666667 L8.21428571,8.16666667 C8.92436611,8.16666667 9.5,7.59103277 9.5,6.88095238 L9.5,6.88095238 L9.5,6.45238095 C9.5,5.74230056 8.92436611,5.16666667 8.21428571,5.16666667 L8.21428571,5.16666667 Z" id="path-1"></path>
    </defs>
    <g id="icon_location" stroke="none" stroke-width="1" fill="none" fill-rule="evenodd">
        <mask id="mask-2" fill="white">
            <use xlink:href="#path-1"></use>
        </mask>
        <use id="路径" fill="#FFFFFF" fill-rule="nonzero" xlink:href="#path-1"></use>
    </g>
</svg>